<svg width="204" height="32" viewBox="0 0 204 32" fill="none" xmlns="http://www.w3.org/2000/svg">
<path d="M197.573 31.5452V25.7156H203.403V31.5452H197.573Z" fill="#180000"/>
<path d="M185.283 31.9994C183.366 31.9994 181.763 31.6587 180.476 30.9774C179.189 30.296 178.217 29.2487 177.561 27.8354C176.905 26.397 176.539 24.5421 176.463 22.2708L182.255 21.4001C182.28 22.7124 182.394 23.7724 182.596 24.5799C182.823 25.3875 183.126 25.9679 183.504 26.3212C183.908 26.6746 184.388 26.8512 184.943 26.8512C185.649 26.8512 186.104 26.6115 186.306 26.132C186.533 25.6525 186.646 25.1478 186.646 24.6178C186.646 23.356 186.343 22.296 185.738 21.438C185.132 20.5547 184.312 19.6715 183.277 18.7882L180.627 16.479C179.467 15.4948 178.482 14.3844 177.675 13.1478C176.892 11.886 176.501 10.334 176.501 8.49173C176.501 5.89238 177.271 3.91132 178.81 2.54856C180.35 1.16055 182.444 0.466553 185.094 0.466553C186.735 0.466553 188.047 0.744153 189.031 1.29935C190.041 1.85456 190.798 2.58641 191.302 3.49492C191.832 4.37819 192.186 5.32456 192.362 6.33402C192.564 7.31824 192.678 8.2646 192.703 9.17311L186.873 9.89235C186.848 8.98384 186.785 8.20151 186.684 7.54537C186.608 6.86398 186.432 6.34663 186.154 5.99333C185.877 5.61478 185.448 5.4255 184.867 5.4255C184.236 5.4255 183.769 5.69049 183.466 6.22045C183.189 6.75042 183.05 7.28038 183.05 7.81035C183.05 8.94598 183.315 9.87973 183.845 10.6116C184.4 11.3182 185.119 12.0627 186.003 12.845L188.539 15.0784C189.877 16.2141 191 17.5011 191.908 18.9396C192.842 20.3781 193.309 22.1572 193.309 24.2771C193.309 25.7156 192.981 27.0279 192.324 28.214C191.668 29.3749 190.735 30.296 189.523 30.9774C188.337 31.6587 186.924 31.9994 185.283 31.9994Z" fill="#180000"/>
<path d="M159.143 31.5457V0.883423H165.919V26.9652H172.959V31.5457H159.143Z" fill="#180000"/>
<path d="M135.303 31.5456L143 1H146L154.533 31.5456L146.41 31.5455V26.8137H143.255V31.5456H135.303Z" fill="#180000"/>
<path d="M115.451 31.5457V0.883423H125.747C127.59 0.883423 129.104 1.23673 130.29 1.94335C131.476 2.62473 132.359 3.63419 132.94 4.97172C133.52 6.28401 133.81 7.88652 133.81 9.77925C133.81 12.1515 133.419 13.9685 132.637 15.2303C131.855 16.4669 130.795 17.3249 129.457 17.8044C128.12 18.2839 126.618 18.5237 124.952 18.5237H122.227V31.5457H115.451ZM122.227 13.7918H124.498C125.331 13.7918 125.962 13.6404 126.391 13.3376C126.82 13.0348 127.098 12.5805 127.224 11.9748C127.375 11.3691 127.451 10.5994 127.451 9.66569C127.451 8.88336 127.388 8.20198 127.262 7.62154C127.161 7.01587 126.896 6.53638 126.467 6.18307C126.038 5.82976 125.369 5.6531 124.46 5.6531H122.227V13.7918Z" fill="#180000"/>
<path d="M99.8424 31.5457V5.91809H95.2241V0.883423H111.237V5.91809H106.656V31.5457H99.8424Z" fill="#180000"/>
<path d="M84.2175 31.5457V0.883423H90.9935V31.5457H84.2175Z" fill="#180000"/>
<path d="M66.2512 31.5457V0.883423H79.5003V5.46383H73.0272V13.1862H78.6675V17.918H73.0272V31.5457H66.2512Z" fill="#180000"/>
<path d="M50.6439 31.5457V5.91809H46.0256V0.883423H62.0381V5.91809H57.4577V31.5457H50.6439Z" fill="#180000"/>
<path d="M32.9691 31.9999C30.6222 31.9999 28.7799 31.6214 27.4424 30.8643C26.1301 30.0819 25.2089 28.9589 24.679 27.4952C24.149 26.0063 23.884 24.1892 23.884 22.0441V0.883423H30.5843V23.0662C30.5843 23.6971 30.6348 24.328 30.7357 24.959C30.8367 25.5899 31.0512 26.1072 31.3792 26.511C31.7326 26.9148 32.2625 27.1167 32.9691 27.1167C33.701 27.1167 34.231 26.9148 34.559 26.511C34.8871 26.1072 35.089 25.5899 35.1647 24.959C35.2656 24.328 35.3161 23.6971 35.3161 23.0662V0.883423H42.0542V22.0441C42.0542 24.1892 41.7766 26.0063 41.2214 27.4952C40.6915 28.9589 39.7703 30.0819 38.4581 30.8643C37.1458 31.6214 35.3161 31.9999 32.9691 31.9999Z" fill="#180000"/>
<path fill-rule="evenodd" clip-rule="evenodd" d="M3.74761 30.7881C5.08514 31.5957 6.90216 31.9994 9.19867 31.9994C11.5204 31.9994 13.3501 31.5957 14.6876 30.7881C16.0504 29.9805 17.022 28.8197 17.6024 27.3055C18.1828 25.7913 18.473 23.9869 18.473 21.8923V10.498C18.473 8.37816 18.1828 6.57376 17.6024 5.08481C17.022 3.59587 16.0504 2.46023 14.6876 1.6779C13.3501 0.870335 11.5204 0.466553 9.19867 0.466553C6.90216 0.466553 5.08514 0.870335 3.74761 1.6779C2.41008 2.46023 1.45109 3.59587 0.870656 5.08481C0.290219 6.57376 0 8.37816 0 10.498V21.8923C0 23.9869 0.290219 25.7913 0.870656 27.3055C1.45109 28.8197 2.41008 29.9805 3.74761 30.7881ZM12.7041 27.3633C13.5336 27.1254 14.0897 26.7726 14.3724 26.3046C14.655 25.8367 14.7751 25.3049 14.7325 24.7091C14.6899 24.1134 14.5844 23.5219 14.416 22.9346L10.1327 7.99702C9.95701 7.38419 9.73302 6.82666 9.46075 6.32442C9.18116 5.79664 8.79754 5.40924 8.30988 5.1622C7.51512 4.92475 7.08652 4.92834 6.33406 5.14844C5.56376 5.36932 5.03729 5.71373 4.75464 6.18165C4.472 6.64957 4.35196 7.1814 4.39454 7.77713C4.42979 8.34734 4.53528 8.93885 4.711 9.55167L8.99428 24.4893C9.16269 25.0765 9.37187 25.6383 9.62183 26.1746C9.90142 26.7024 10.2702 27.094 10.7283 27.3496C11.4928 27.5832 11.9083 27.5799 12.7041 27.3633Z" fill="#180000"/>
</svg>
