<svg width="28" height="28" viewBox="0 0 28 28" fill="none" xmlns="http://www.w3.org/2000/svg">
<path d="M14.0001 10.7C13.3461 10.7 12.7068 10.8939 12.163 11.2573C11.6192 11.6206 11.1954 12.1371 10.9451 12.7413C10.6948 13.3455 10.6294 14.0103 10.757 14.6518C10.8845 15.2932 11.1995 15.8824 11.6619 16.3448C12.1244 16.8073 12.7136 17.1222 13.355 17.2498C13.9964 17.3774 14.6613 17.3119 15.2655 17.0616C15.8697 16.8114 16.3861 16.3875 16.7495 15.8438C17.1128 15.3 17.3067 14.6607 17.3067 14.0067C17.3067 13.5724 17.2212 13.1424 17.055 12.7413C16.8889 12.3401 16.6453 11.9756 16.3382 11.6685C16.0312 11.3615 15.6667 11.1179 15.2655 10.9517C14.8643 10.7855 14.4343 10.7 14.0001 10.7ZM27.2401 7.43334C27.2331 6.40368 27.0435 5.38343 26.6801 4.42001C26.4125 3.71502 25.9984 3.0748 25.4652 2.54159C24.932 2.00838 24.2917 1.5943 23.5867 1.32667C22.6233 0.963292 21.6031 0.773688 20.5734 0.766673C18.8534 0.67334 18.3467 0.67334 14.0001 0.67334C9.65341 0.67334 9.14675 0.67334 7.42675 0.766673C6.39709 0.773688 5.37684 0.963292 4.41341 1.32667C3.70843 1.5943 3.06821 2.00838 2.53499 2.54159C2.00178 3.0748 1.5877 3.71502 1.32008 4.42001C0.9567 5.38343 0.767096 6.40368 0.760081 7.43334C0.666748 9.15334 0.666748 9.66001 0.666748 14.0067C0.666748 18.3533 0.666748 18.86 0.760081 20.58C0.774433 21.6133 0.96378 22.6367 1.32008 23.6067C1.58652 24.3084 2.00025 24.9449 2.53341 25.4733C3.06434 26.0097 3.70593 26.4238 4.41341 26.6867C5.37684 27.0501 6.39709 27.2397 7.42675 27.2467C9.14675 27.34 9.65341 27.34 14.0001 27.34C18.3467 27.34 18.8534 27.34 20.5734 27.2467C21.6031 27.2397 22.6233 27.0501 23.5867 26.6867C24.2942 26.4238 24.9358 26.0097 25.4667 25.4733C25.9999 24.9449 26.4136 24.3084 26.6801 23.6067C27.0431 22.6385 27.2327 21.614 27.2401 20.58C27.3334 18.86 27.3334 18.3533 27.3334 14.0067C27.3334 9.66001 27.3334 9.15334 27.2401 7.43334ZM23.8534 18.1C23.8106 18.9228 23.635 19.7333 23.3334 20.5C23.0746 21.1396 22.6898 21.7206 22.2019 22.2085C21.714 22.6964 21.133 23.0812 20.4934 23.34C19.7194 23.6248 18.9044 23.7824 18.0801 23.8067C17.0267 23.8067 16.7467 23.8067 14.0001 23.8067C11.2534 23.8067 10.9734 23.8067 9.92008 23.8067C9.09572 23.7824 8.28073 23.6248 7.50675 23.34C6.84555 23.0943 6.24845 22.7023 5.76008 22.1933C5.27697 21.715 4.90387 21.1372 4.66675 20.5C4.38082 19.7268 4.22756 18.9109 4.21341 18.0867C4.21341 17.0333 4.21341 16.7533 4.21341 14.0067C4.21341 11.26 4.21341 10.98 4.21341 9.92667C4.22756 9.10244 4.38082 8.28652 4.66675 7.51334C4.91246 6.85214 5.30445 6.25504 5.81341 5.76667C6.29386 5.28617 6.8711 4.91346 7.50675 4.67334C8.28073 4.38855 9.09572 4.23095 9.92008 4.20667C10.9734 4.20667 11.2534 4.20667 14.0001 4.20667C16.7467 4.20667 17.0267 4.20667 18.0801 4.20667C18.9044 4.23095 19.7194 4.38855 20.4934 4.67334C21.1546 4.91905 21.7517 5.31104 22.2401 5.82001C22.7232 6.29834 23.0963 6.87618 23.3334 7.51334C23.6182 8.28732 23.7758 9.10231 23.8001 9.92667C23.8001 10.98 23.8001 11.26 23.8001 14.0067C23.8001 16.7533 23.8934 17.0333 23.8534 18.0867V18.1ZM21.7201 8.18001C21.5613 7.74932 21.311 7.3582 20.9865 7.03362C20.6619 6.70905 20.2708 6.45876 19.8401 6.30001C19.2487 6.09502 18.6259 5.99573 18.0001 6.00667C16.9601 6.00667 16.6667 6.00667 14.0001 6.00667C11.3334 6.00667 11.0401 6.00667 10.0001 6.00667C9.3711 6.01282 8.74817 6.13018 8.16008 6.35334C7.73599 6.50488 7.349 6.74496 7.02486 7.05761C6.70071 7.37026 6.44683 7.74832 6.28008 8.16667C6.08645 8.7605 5.99185 9.38213 6.00008 10.0067C6.00008 11.0467 6.00008 11.34 6.00008 14.0067C6.00008 16.6733 6.00008 16.9667 6.00008 18.0067C6.0133 18.6349 6.13044 19.2567 6.34675 19.8467C6.5055 20.2774 6.75579 20.6685 7.08037 20.9931C7.40494 21.3176 7.79606 21.5679 8.22675 21.7267C8.79564 21.9359 9.39428 22.0529 10.0001 22.0733C11.0401 22.0733 11.3334 22.0733 14.0001 22.0733C16.6667 22.0733 16.9601 22.0733 18.0001 22.0733C18.6291 22.0672 19.252 21.9498 19.8401 21.7267C20.2708 21.5679 20.6619 21.3176 20.9865 20.9931C21.311 20.6685 21.5613 20.2774 21.7201 19.8467C21.9432 19.2586 22.0606 18.6356 22.0667 18.0067C22.0667 16.9667 22.0667 16.6733 22.0667 14.0067C22.0667 11.34 22.0667 11.0467 22.0667 10.0067C22.0671 9.37707 21.9496 8.75297 21.7201 8.16667V8.18001ZM14.0001 19.1C13.3318 19.1 12.6702 18.9682 12.053 18.712C11.4358 18.4559 10.8752 18.0805 10.4033 17.6074C9.93136 17.1343 9.55745 16.5727 9.30294 15.9548C9.04843 15.3369 8.91833 14.6749 8.92008 14.0067C8.92008 12.9987 9.21914 12.0135 9.7794 11.1756C10.3397 10.3377 11.1359 9.68489 12.0674 9.29978C12.9988 8.91468 14.0236 8.81459 15.012 9.0122C16.0004 9.20981 16.9079 9.69623 17.6197 10.4099C18.3314 11.1235 18.8155 12.0323 19.0105 13.0212C19.2055 14.0101 19.1028 15.0346 18.7152 15.9651C18.3277 16.8955 17.6728 17.6901 16.8334 18.2481C15.9941 18.8062 15.008 19.1026 14.0001 19.1ZM19.3334 9.91334C19.0387 9.88214 18.7659 9.74297 18.5677 9.52263C18.3694 9.3023 18.2597 9.0164 18.2597 8.72001C18.2597 8.42362 18.3694 8.13771 18.5677 7.91738C18.7659 7.69705 19.0387 7.55787 19.3334 7.52667C19.6282 7.55787 19.9009 7.69705 20.0992 7.91738C20.2974 8.13771 20.4071 8.42362 20.4071 8.72001C20.4071 9.0164 20.2974 9.3023 20.0992 9.52263C19.9009 9.74297 19.6282 9.88214 19.3334 9.91334Z" fill="white"/>
</svg>
