<svg width="28" height="28" viewBox="0 0 28 28" fill="none" xmlns="http://www.w3.org/2000/svg">
<path d="M25.8667 0.67334H2.13341C1.74443 0.67334 1.37138 0.827863 1.09632 1.10292C0.821272 1.37797 0.666748 1.75102 0.666748 2.14001V25.8733C0.666748 26.0659 0.704685 26.2567 0.778392 26.4346C0.852098 26.6126 0.960132 26.7742 1.09632 26.9104C1.23252 27.0466 1.3942 27.1547 1.57215 27.2284C1.75009 27.3021 1.94081 27.34 2.13341 27.34H14.9067V17.0067H11.4401V13.0067H14.9067V10.0067C14.8349 9.30235 14.9181 8.59084 15.1504 7.92206C15.3826 7.25327 15.7584 6.6434 16.2514 6.13522C16.7443 5.62704 17.3424 5.23286 18.0038 4.98032C18.6653 4.72779 19.3739 4.62301 20.0801 4.67334C21.1178 4.66695 22.1551 4.72038 23.1867 4.83334V8.43334H21.0667C19.3867 8.43334 19.0667 9.23334 19.0667 10.3933V12.9667H23.0667L22.5467 16.9667H19.0667V27.34H25.8667C26.0594 27.34 26.2501 27.3021 26.428 27.2284C26.606 27.1547 26.7676 27.0466 26.9038 26.9104C27.04 26.7742 27.1481 26.6126 27.2218 26.4346C27.2955 26.2567 27.3334 26.0659 27.3334 25.8733V2.14001C27.3334 1.9474 27.2955 1.75668 27.2218 1.57874C27.1481 1.40079 27.04 1.23911 26.9038 1.10292C26.7676 0.966724 26.606 0.85869 26.428 0.784983C26.2501 0.711276 26.0594 0.67334 25.8667 0.67334Z" fill="white"/>
</svg>
