<svg width="800" height="600" viewBox="0 0 800 600" fill="none" xmlns="http://www.w3.org/2000/svg">
<g clip-path="url(#clip0_291_1933)">
<path d="M75 109.011L282.5 42V712.113L75 779.125V109.011Z" fill="#BBDBE6"/>
<path d="M250.17 111.363L167.875 492.269" stroke="white" stroke-width="4" stroke-linecap="round"/>
<path d="M256 276L223 418" stroke="white" stroke-width="4" stroke-linecap="round"/>
<path d="M416.753 540.788C416.753 540.788 404.529 570.646 403.413 596.292C402.34 621.938 371.201 682.523 374.587 813.52C378.387 959.591 353.98 1320.78 353.98 1320.78H573.52L528.464 683.349L534.618 528.646" fill="#212332"/>
<mask id="mask0_291_1933" style="mask-type:luminance" maskUnits="userSpaceOnUse" x="353" y="528" width="221" height="793">
<path d="M416.753 540.788C416.753 540.788 404.529 570.646 403.413 596.292C402.34 621.938 371.201 682.523 374.587 813.52C378.387 959.591 353.98 1320.78 353.98 1320.78H573.52L528.464 683.349L534.618 528.646" fill="white"/>
</mask>
<g mask="url(#mask0_291_1933)">
<path d="M480.435 531.95C473.827 601.991 473.62 672.529 473.827 742.859C474.033 814.346 475.727 885.957 481.715 957.196C487.579 1026.82 496.913 1096 500.092 1165.92C501.621 1199.95 501.538 1233.93 502.033 1268.01C502.488 1296.5 498.317 1339.53 515.621 1363.69C521.857 1372.41 536.683 1372.32 539.697 1360.55C543.827 1344.24 539.243 1327.35 537.632 1310.79C536.146 1295.26 535.402 1279.69 534.824 1264.08C533.585 1229.97 532.718 1195.94 530.364 1161.87C525.45 1092.08 516.116 1022.82 509.88 953.149C503.644 883.19 499.432 813.066 497.326 742.859C495.219 672.57 496.169 602.115 491.255 531.95C490.759 524.929 481.054 525.012 480.435 531.95Z" fill="#272F44"/>
<path d="M453.343 517.041C437.278 584.15 424.104 651.301 416.918 720.021C409.237 793.077 412.334 866.381 412.334 939.685C412.334 1012.74 409.897 1085.8 406.263 1158.81C402.629 1231.37 393.667 1305.13 394.328 1377.73C394.534 1400.28 425.756 1398.88 428.399 1377.73C437.443 1305.88 437.195 1231.17 439.632 1158.81C442.027 1087.16 443.266 1015.47 442.192 943.774C441.119 871.75 436.865 799.685 442.771 727.785C448.552 657.826 459.331 588.693 463.626 518.528C463.998 512.622 454.706 511.424 453.343 517.123V517.041Z" fill="#272F44"/>
</g>
<path d="M513.886 526.747L508.393 731.792L608.5 1320.78H861.533C861.533 1320.78 742.182 872.701 721.78 812.653C701.379 752.606 704.229 686.033 677.757 642.712C651.285 599.39 626.836 552.723 628.405 522.947" fill="#212332"/>
<mask id="mask1_291_1933" style="mask-type:luminance" maskUnits="userSpaceOnUse" x="508" y="522" width="354" height="799">
<path d="M513.886 526.747L508.393 731.792L608.5 1320.78H861.533C861.533 1320.78 742.182 872.701 721.78 812.653C701.379 752.606 704.229 686.033 677.757 642.712C651.285 599.39 626.836 552.723 628.405 522.947" fill="white"/>
</mask>
<g mask="url(#mask1_291_1933)">
<path d="M555.597 505.56C563.856 572.876 600.281 630.363 615.025 695.903C629.066 758.346 641.992 820.995 656.983 883.272C673.048 950.051 692.376 1016.05 707.821 1082.95C719.88 1135.19 728.801 1187.76 742.512 1239.67C752.093 1275.93 761.839 1312.28 772.494 1348.25C778.441 1368.28 809.828 1359.73 803.839 1339.62C781.167 1263.17 761.096 1186.81 745.32 1108.68C731.32 1039.38 710.506 971.609 693.45 903.054C677.839 840.322 663.096 777.384 648.806 714.322C641.084 680.168 631.502 647.708 617.833 615.454C602.016 578.203 583.39 541.985 570.423 503.619C567.862 496.103 554.482 496.681 555.597 505.643V505.56Z" fill="#272F44"/>
<path d="M522.6 532.073C517.851 598.398 540.358 666.912 554.895 730.965C570.506 799.685 582.317 868.735 592.352 938.446C612.836 1080.72 640.052 1222.66 674.164 1362.33C679.244 1383.14 711.208 1374.35 706.253 1353.49C673.421 1214.65 646.494 1075.1 620.765 934.812C608.335 866.918 594.541 799.643 576.783 732.906C568.234 700.735 559.892 668.481 552.748 635.979C545.107 601.082 540.482 565.483 532.429 530.752C531.066 524.97 522.93 526.663 522.559 532.073H522.6Z" fill="#272F44"/>
</g>
<path d="M403.413 596.294C403.413 596.294 489.272 620.535 648.517 590.429" stroke="#464B66" stroke-miterlimit="10"/>
<path d="M818.666 1320.78C818.666 1320.78 709.267 872.701 690.476 812.653C671.686 752.606 674.618 686.033 650.128 642.712C625.638 599.39 603.09 552.723 604.659 522.947" stroke="#464B66" stroke-miterlimit="10"/>
<path d="M303.844 668.936C337.13 615.579 371.201 567.673 400.564 512.045C421.378 472.646 452.187 386.994 458.505 369.319L367.361 340.451C359.679 363.495 327.054 444.77 315.945 468.269C303.72 494.121 283.154 524.971 274.481 552.228C260.316 596.54 251.52 626.647 241.112 676.783" fill="#FFD5C2"/>
<path d="M459.95 230.186C432.487 239.808 419.354 246.581 400.687 263.761C389.083 274.457 376.982 294.28 372.481 310.386C361.041 351.313 347.702 356.805 337.212 383.69C331.059 399.384 321.684 417.844 315.944 433.455C337.543 440.269 359.802 444.894 382.145 444.027C404.487 443.16 426.994 436.552 445.785 422.263" fill="#E3A32A"/>
<path d="M568.523 168.898L569.225 228.202L597.431 237.742C597.431 237.742 547.791 347.636 481.343 346.191C414.935 344.746 441.366 242.244 441.366 242.244L479.649 222.751L484.481 167.081" fill="#FFD5C2"/>
<path d="M428.192 247.572C425.094 269.006 409.525 345.738 405.065 366.717C400.522 388.109 398.829 398.434 402.257 419.826C408.906 461.455 415.389 487.101 409.071 529.39C407.956 536.948 407.13 546.157 413.242 550.741C415.885 552.723 419.354 553.343 422.658 553.508C449.336 554.871 440.044 549.833 466.764 550.782C474.652 551.071 502.941 553.302 510.54 555.366C545.561 564.906 581.16 571.06 617.296 573.249C624.977 573.703 632.948 573.992 640.133 571.184C647.319 568.375 653.555 561.768 653.514 554.045C653.431 546.116 647.113 539.797 644.057 532.446C640.133 523.113 641.703 512.458 643.313 502.464C651.862 449.643 691.26 392.611 668.918 344.003C667.308 340.451 645.007 252.693 643.066 252.693C641.125 252.693 616.593 233.902 616.593 233.902C616.593 233.902 524.54 304.481 496.788 298.08C469.036 291.678 459.991 230.186 459.991 230.186L428.233 247.572H428.192Z" fill="#E3A32A"/>
<path d="M423.319 307.33C415.389 331.819 407.295 356.227 405.065 366.716C400.522 388.109 398.829 398.433 402.257 419.826C408.906 461.454 415.389 487.1 409.071 529.389" stroke="#A36B01" stroke-miterlimit="10"/>
<path d="M437.773 399.383C484.771 402.728 532.676 391.537 573.314 367.708" stroke="#FFE594" stroke-miterlimit="10"/>
<path d="M443.844 371.217C474.033 375.512 505.007 374.025 534.659 366.881" stroke="#FFE594" stroke-miterlimit="10"/>
<path d="M732.559 410.08C740.736 436.8 755.686 490.901 729.627 514.482C702.37 539.137 665.574 514.977 644.14 480.328C628.282 454.641 614.24 408.883 589.544 386.086C568.193 366.387 603.42 325.46 603.42 325.46L625.308 343.095" fill="#FFD5C2"/>
<path d="M616.553 233.902C616.553 233.902 665.16 242.368 683.992 275.283C702.824 308.239 703.361 336.9 719.591 355.03C735.821 373.118 744.329 432.463 744.329 432.463C744.329 432.463 679.036 408.098 634.063 405.62C612.299 404.422 612.836 410.617 612.836 410.617C612.836 410.617 598.67 318.109 598.67 288.994" fill="#E3A32A"/>
<path d="M612.836 410.617C612.836 410.617 598.67 318.11 598.67 288.995" stroke="#A36B01" stroke-miterlimit="10"/>
<path d="M615.355 422.594L603.379 400.169C594.5 393.561 587.272 389.844 579.426 382.039C570.753 373.408 562.617 361.059 550.435 357.177C546.759 356.021 542.877 355.36 539.408 353.75C538.788 353.461 538.169 353.089 538.004 352.428C537.797 351.478 538.706 350.694 539.573 350.239C545.355 347.018 552.252 346.316 558.736 347.142C567.243 348.216 577.815 353.791 577.98 340.41C578.104 331.738 577.485 321.62 572.488 314.186C568.399 308.157 561.379 304.605 557.166 298.617C565.963 297.047 575.131 298.823 583.349 302.375C591.526 305.968 598.877 311.254 605.733 316.994C630.14 337.272 697.538 407.602 715.42 439.443" fill="#FFD5C2"/>
<path d="M692.995 407.271C701.626 418.215 721.573 442.168 728.429 454.062" stroke="black" stroke-miterlimit="10"/>
<path d="M313.837 350.405L430.297 322.818C458.752 316.087 488.693 319.556 514.876 332.606L621.92 386.087" stroke="#513306" stroke-width="8" stroke-miterlimit="10" stroke-linecap="round"/>
<path d="M442.274 271.897C443.306 262.852 451.483 256.369 460.528 257.401C469.572 258.433 476.056 266.61 475.023 275.655C474.362 281.189 471.885 302.581 470.068 318.274" stroke="#513306" stroke-width="4" stroke-miterlimit="10"/>
<path d="M342.044 568.459C342.044 568.459 329.696 659.893 311.607 703.338C302.563 725.061 291.164 745.132 291.164 745.132C304.173 754.796 317.802 750.377 333.206 759.545C346.463 767.433 355.631 778.212 371.489 781.02C389.413 784.2 405.767 781.681 422.905 775.899C438.846 770.53 456.646 763.097 473.661 767.598C482.911 770.035 490.717 775.569 500.463 776.23C511.655 776.973 523.053 773.256 533.212 768.92C549.36 762.023 566.664 753.433 583.637 757.935C591.773 760.082 598.959 765.162 607.219 766.855C624.853 770.448 648.31 757.811 657.809 753.02C657.809 753.02 651.944 734.477 629.767 695.657C610.729 662.33 596.564 600.795 595.862 579.444" fill="#978C5B"/>
<path d="M624.027 630.24C609.077 621.319 573.891 624.664 551.177 634.287C538.87 639.49 525.325 645.479 512.687 641.225C498.481 636.434 490.923 620.452 477.378 614.051C467.962 609.591 456.894 610.417 446.776 612.853C436.658 615.29 426.911 619.296 416.669 620.989C399.572 623.838 381.938 620.204 365.914 613.597C349.932 606.948 335.312 597.408 320.817 587.95C332.876 570.151 336.882 563.089 341.383 546.281C345.348 531.579 350.427 513.738 350.469 498.499C350.551 472.109 366.534 429.118 376.115 404.504C403.784 419.619 434.386 457.407 449.295 491.974C483.696 455.26 516.363 437.543 556.133 433.62L598.009 501.637C598.009 501.637 594.086 530.918 600.652 556.068C609.036 588.239 620.351 600.629 623.986 630.281L624.027 630.24Z" fill="#978C5B"/>
<path d="M604.327 625.244C587.684 624.129 566.581 627.763 551.177 634.288C538.87 639.492 525.324 645.48 512.687 641.226C498.481 636.436 490.923 620.454 477.377 614.052C467.961 609.592 456.893 610.418 446.775 612.855C436.657 615.291 426.911 619.297 416.669 620.99C399.572 623.84 381.937 620.206 365.914 613.598C355.878 609.427 346.38 604.141 337.129 598.4" stroke="#B4AA6E" stroke-width="2" stroke-miterlimit="10"/>
<path d="M379.46 424.618C379.46 424.618 374.711 375.019 383.177 325.461" stroke="#978C5B" stroke-width="4" stroke-miterlimit="10"/>
<path d="M551.59 459.514C551.59 459.514 560.097 391.743 576.451 355.071" stroke="#978C5B" stroke-width="4" stroke-miterlimit="10"/>
<path d="M543.744 450.387C532.345 481.361 526.646 514.399 527.018 547.396" stroke="#B4AA6E" stroke-width="2" stroke-miterlimit="10"/>
<path d="M551.467 457.739C552.458 478.264 551.467 498.83 548.576 519.149" stroke="#B4AA6E" stroke-width="2" stroke-miterlimit="10"/>
<path d="M517.808 469.385C511.696 478.842 506.121 488.712 501.206 498.872" stroke="#B4AA6E" stroke-width="2" stroke-miterlimit="10"/>
<path d="M374.71 433.744V484.128" stroke="#B4AA6E" stroke-width="2" stroke-miterlimit="10"/>
<path d="M385.365 431.845C395.07 463.562 398.911 497.096 396.557 530.175" stroke="#B4AA6E" stroke-width="2" stroke-miterlimit="10"/>
<path d="M406.799 443.779C418.61 460.629 427.365 479.626 432.445 499.532" stroke="#B4AA6E" stroke-width="2" stroke-miterlimit="10"/>
<path d="M475.85 72.9638C479.236 69.8251 482.912 67.0995 486.959 65.0346C504.635 55.9903 526.357 63.2588 541.762 73.6246C552.127 80.6039 560.676 90.5155 565.178 102.162C573.933 124.875 566.251 151.182 552.21 171.088C542.546 184.758 534.163 194.628 518.759 201.194C494.888 211.395 463.254 213.749 448.965 193.926C440.086 181.619 440.953 162.87 446.115 142.592C449.749 128.303 452.145 110.958 457.885 98.073C461.891 89.07 468.292 80.0258 475.85 72.9638Z" fill="#FFD5C2"/>
<path d="M523.054 193.678C523.054 193.678 505.585 205.779 480.806 208.835" stroke="black" stroke-linejoin="round"/>
<path d="M561.46 153.784C562.657 163.241 564.185 171.501 562.451 180.876C557.743 206.315 552.58 240.717 572.445 261.489C580.787 270.245 592.722 275.448 604.781 275.696C621.053 276.026 637.076 267.767 653.1 270.658C662.516 272.351 671.189 278.009 676.516 285.979C679.448 290.357 681.348 295.354 684.156 299.814C686.923 304.316 690.888 308.445 696.05 309.602C700.841 310.675 705.838 309.065 710.091 306.669C724.835 298.492 732.929 281.106 727.147 264.959C723.018 253.354 715.295 243.029 705.383 235.719C696.587 229.236 686.262 225.23 676.722 219.944C667.183 214.657 657.932 207.595 653.678 197.56C648.144 184.551 651.944 168.94 646.203 156.055C642.982 148.787 637.035 143.171 632.121 136.976C613.413 113.518 607.548 80.6039 584.876 61.0286C574.468 52.0257 562.244 44.9637 548.368 44.592C540.728 44.3855 532.634 45.8309 525.654 42.6923C523.052 41.4947 520.74 39.7188 518.138 38.4386C510.167 34.474 500.38 35.6716 492.451 39.6776C484.521 43.6835 478.12 50.126 472.214 56.775C465.4 64.4564 459.04 72.6747 455.076 82.1733C451.111 91.6305 449.79 102.533 453.259 112.197C455.324 98.9816 467.135 86.427 478.451 77.3827C485.884 71.4358 496.663 66.8517 504.551 72.1791C507.4 74.0789 509.341 77.0523 511.159 79.9432C514.008 84.486 516.816 89.2352 517.766 94.5214C518.427 98.1556 518.22 101.914 519.005 105.548C521.4 116.657 532.262 123.43 541.843 129.501C550.887 135.241 560.014 142.551 561.46 153.784Z" fill="#513306"/>
<path d="M489.189 135.695C488.322 138.544 489.437 141.394 491.667 142.096C493.897 142.798 496.417 141.022 497.284 138.173C498.151 135.323 497.036 132.474 494.806 131.772C492.576 131.07 490.057 132.845 489.189 135.695Z" fill="black"/>
<path d="M454.457 127.559C453.59 130.409 454.705 133.259 456.935 133.961C459.165 134.663 461.685 132.887 462.552 130.037C463.419 127.188 462.304 124.338 460.074 123.636C457.844 122.934 455.325 124.71 454.457 127.559Z" fill="black"/>
<path d="M474.239 128.593C472.34 132.598 470.027 136.357 467.962 140.239C466.351 143.212 462.428 148.705 463.874 152.215C465.113 155.271 472.257 155.436 474.033 153.289" stroke="black" stroke-width="4" stroke-linejoin="round"/>
<path d="M521.856 122.48C519.791 118.887 516.941 115.625 513.307 113.684C509.508 111.619 505.171 111.206 501 112.115C499.927 112.362 499.266 113.601 499.555 114.634C499.844 115.749 501 116.327 502.115 116.079C505.378 115.377 508.64 115.749 511.49 117.359C514.422 119.011 516.652 121.613 518.346 124.587C519.667 126.899 523.26 124.793 521.897 122.522L521.856 122.48Z" fill="black"/>
<path d="M457.651 103.286C459.104 106.855 462.061 109.554 465.98 109.854C469.65 110.133 473.263 108.718 476.054 106.375C476.906 105.643 477.223 104.456 476.565 103.516C475.956 102.654 474.557 102.272 473.706 103.005C473.126 103.508 472.539 103.929 471.907 104.312C471.708 104.412 471.55 104.507 471.351 104.607C470.953 104.805 471.632 104.501 471.193 104.702C470.874 104.853 470.555 105.003 470.232 105.113C469.91 105.222 469.587 105.331 469.265 105.441C469.1 105.454 468.939 105.509 468.778 105.564C468.249 105.69 469.189 105.53 468.654 105.574C467.958 105.672 467.296 105.685 466.596 105.743C466.432 105.756 466.973 105.795 466.514 105.749C466.349 105.763 466.178 105.694 466.051 105.663C465.715 105.608 465.376 105.511 465.036 105.415C465.376 105.511 465.118 105.408 464.95 105.38C464.82 105.308 464.649 105.239 464.518 105.167C464.388 105.095 464.217 105.026 464.087 104.954C463.614 104.744 464.398 105.219 463.956 104.882C463.693 104.696 463.425 104.47 463.158 104.243C463.066 104.126 462.795 103.858 463.025 104.13C462.891 104.016 462.795 103.858 462.699 103.7C462.466 103.388 462.275 103.072 462.083 102.756C462.032 102.636 461.939 102.52 461.888 102.4C461.984 102.557 461.984 102.557 461.888 102.4C461.786 102.159 461.686 101.96 461.584 101.72C461.167 100.677 460.001 100.11 458.914 100.489C457.908 100.861 457.265 102.116 457.679 103.118L457.651 103.286Z" fill="black"/>
<path d="M540.399 139.205C545.107 133.506 553.697 130.822 560.428 134.745C575.626 143.624 568.358 162.456 559.52 171.79C550.641 181.205 536.021 181.66 533.461 170.014" fill="#FFD5C2"/>
<path d="M564.806 164.646C564.806 164.646 548.039 191.366 534.617 173.153" stroke="black" stroke-linejoin="round"/>
<path d="M558.611 144.038C554.523 144.12 550.6 146.185 547.956 149.283C545.272 152.38 543.785 156.345 543.29 160.392C542.877 163.861 543.331 167.743 545.974 170.056" stroke="black" stroke-linejoin="round"/>
<path d="M549.484 187.524C554.274 187.524 558.157 183.641 558.157 178.852C558.157 174.062 554.274 170.179 549.484 170.179C544.695 170.179 540.812 174.062 540.812 178.852C540.812 183.641 544.695 187.524 549.484 187.524Z" fill="#B6151F"/>
<path d="M549.484 148.291C550.475 148.208 551.425 148.58 552.292 149.075C554.275 150.273 555.638 152.379 556.133 154.65C556.629 156.922 556.257 159.317 555.307 161.423" stroke="black" stroke-linejoin="round"/>
<path d="M489.104 174.323C487.08 162.32 468.647 164.01 470.442 179.992" stroke="black" stroke-width="4" stroke-linejoin="round"/>
<path d="M642.983 352.757C642.983 352.757 602.511 306.42 593.26 299.4C584.009 292.379 569.514 285.978 563.278 285.813C557.042 285.606 539.903 293.122 534.369 297.583C528.877 302.002 523.797 312.45 523.384 319.801C522.971 327.152 522.31 338.179 525.573 341.193C528.794 344.208 530.157 339.005 530.157 339.005C530.157 339.005 530.859 348.173 533.254 347.636C535.649 347.14 537.921 341.978 537.921 341.978C537.921 341.978 536.434 349.701 539.697 349.081C544.528 348.173 546.717 342.845 546.717 342.845C546.717 342.845 544.528 347.966 549.608 347.14C556.587 346.025 560.015 337.724 567.201 337.27C569.349 337.146 571.496 337.766 573.478 338.674C582.068 342.474 584.257 346.19 590.411 352.757C598.835 361.719 624.027 371.63 624.027 371.63" fill="#FFD5C2"/>
<path d="M546.718 342.846C546.718 342.846 550.517 332.521 555.514 328.928C560.47 325.335 567.78 324.427 575.048 325.046" stroke="black" stroke-miterlimit="10"/>
<path d="M537.921 341.978C537.921 341.978 538.417 326.615 548.948 318.48C559.107 310.633 567.16 307.949 567.16 307.949" stroke="black" stroke-miterlimit="10"/>
<path d="M530.157 339.005C530.157 339.005 530.281 321.246 535.856 312.243C540.234 305.223 549.361 299.648 557.662 296.922" stroke="black" stroke-miterlimit="10"/>
<path d="M577.939 340.45C589.502 355.07 602.305 361.347 626.67 374.191" stroke="black" stroke-miterlimit="10"/>
<path d="M717.598 69.2256C710.402 67.8448 702.509 67.8986 695.165 68.1195C685.525 68.4095 674.27 69.4984 666.102 73.9957C662.228 76.1288 662.199 78.9447 664.817 81.9228C669.988 87.8037 679.848 90.2291 688.272 91.6704C695.687 92.939 703.537 93.4895 711.113 93.0069C714.583 92.7858 723.38 92.2482 724.812 88.859C725.796 86.5299 721.989 83.907 720.168 82.6141C714.731 78.754 706.951 77.9855 699.897 77.6597C694.42 77.4067 668.315 79.1384 676.472 88.0755C679.797 91.7193 686.285 93.0661 691.573 93.6752C702.457 94.9291 715.766 94.7988 726.302 91.9469C729.367 91.1171 731.989 89.2552 729.573 86.6929C724.025 80.8081 711.59 78.6653 702.993 78.0514C694.204 77.4238 662.711 79.1275 669.578 91.8547C676.736 105.12 703.318 103.808 717.13 99.1827C731.044 94.5234 723.678 80.9821 711.464 78.9962C700.442 77.2042 674.494 84.581 679.889 96.4635C682.453 102.111 690.545 103.536 697.21 104.252C707.794 105.389 720.663 105.201 730.274 100.98C735.034 98.8897 737.461 95.042 735.064 90.933C731.111 84.1546 719.459 83.528 711.405 83.628C700.036 83.7693 691.497 87.1701 682.547 92.546C675.207 96.955 663.957 103.769 668.994 112.179C672.183 117.505 680.122 120.464 686.87 121.996C697.51 124.412 710.281 124.568 720.343 120.521C725.089 118.612 727.819 115.778 726.419 111.511C724.395 105.346 716.059 103.372 708.718 103.791C702.105 104.169 659.454 117.681 669.315 125.568C673.468 128.889 681.923 129.902 687.513 129.854C694.399 129.795 706.419 128.467 711.522 124.3C713.76 122.473 712.19 119.981 710.062 118.678C703.394 114.594 693.734 116.98 686.636 118.816C681.352 120.183 670.892 122.445 668.877 127.411C667.222 131.494 671.907 135.718 676.413 137.021C682.446 138.765 706.664 142.322 702.847 131.951C701.633 128.651 698.951 125.534 695.954 123.079C690.387 118.518 682.795 119.373 675.829 121.535C670.932 123.055 664.347 125.973 663.211 130.522C661.932 135.642 669.776 139.704 675.157 140.454C683.708 141.647 694.171 140.77 702.467 138.933C710.153 137.232 713.39 132.928 711.581 126.743C710.377 122.627 705.788 119.39 701.124 117.618C693.916 114.879 685.236 116.937 678.867 120.176C674.902 122.191 671.168 125.329 672.616 129.347C674.914 135.725 686.563 137.479 693.588 138.081C698.44 138.497 704.916 138.461 708.601 135.408C712.866 131.874 709.297 126.803 706.265 123.678C703.118 120.436 698.862 117.265 693.325 117.456C687.052 117.674 680.632 121.146 676.997 125.038C668.512 134.123 689.952 137.332 697.56 135.223C700.312 134.461 704.187 132.739 704.074 130.015C703.898 125.793 697.643 126.928 694.698 128.218C691.321 129.697 679 135.979 685.059 140.247C686.784 141.462 688.481 140.622 690.258 140.155" stroke="#513306" stroke-width="3" stroke-linecap="round"/>
</g>
<defs>
<clipPath id="clip0_291_1933">
<rect width="800" height="600" fill="white"/>
</clipPath>
</defs>
</svg>
