<svg width="800" height="600" viewBox="0 0 800 600" fill="none" xmlns="http://www.w3.org/2000/svg">
<g clip-path="url(#clip0_291_1935)">
<path d="M156.181 430.75C159.315 543.654 151.019 953.09 151.019 953.09H267.094L299.616 530.195" fill="#736375"/>
<path d="M242.98 473.374C251.055 615.298 271.704 808.253 295.007 948.481H393.605C385.161 845.2 379.63 697.745 364.439 594.76C358.355 553.462 352.234 512.017 350.833 470.314" fill="#736375"/>
<path d="M277.456 823.519L293.311 569.429" stroke="black" stroke-miterlimit="10"/>
<path d="M164.072 915.332L176.535 480.417" stroke="#A799AA" stroke-miterlimit="10"/>
<path d="M179.669 530.675C179.669 530.675 217.722 535.026 252.272 487.718" stroke="#A799AA" stroke-miterlimit="10"/>
<path d="M298.399 502.578L293.79 550.475C293.79 550.475 313.112 553.02 314.808 502.578" stroke="#A799AA" stroke-miterlimit="10"/>
<path d="M332.285 497.563C332.285 497.563 331.216 523.485 355.184 526.546" stroke="#A799AA" stroke-miterlimit="10"/>
<path d="M544.588 233.94C547.72 231.685 552.534 232.227 555.056 235.147C558.139 238.663 557.464 243.977 556.667 248.554C555.594 254.581 555.707 262.26 550.792 266.578C545.017 271.671 539.054 272.036 531.788 270.576C530.303 270.293 528.795 269.931 527.622 268.994C526.551 268.115 525.896 266.826 525.277 265.545C524.37 263.607 523.42 261.7 522.513 259.763" fill="#A5613F"/>
<path d="M480.462 257.453L402.843 289.92L384.164 278.815L366.227 296.905L353.906 361.56C378.769 381.575 401.561 383.704 423.373 368.717C450.28 350.235 473.914 332.78 499.981 313.387L480.455 257.49L480.462 257.453Z" fill="#FFB797"/>
<path d="M275.613 204.339C275.613 204.339 312.233 213.871 335.553 231.941C358.837 250.003 397.198 284.678 397.198 284.678L353.105 380.138L282.809 316.668" fill="#FC7F40"/>
<path d="M457.734 340.47C457.734 340.47 485.917 319.04 498.415 314.515C523.258 298.003 527.448 295.912 538.656 287.125C551.143 277.342 572.485 258.325 572.523 253.79C572.525 249.249 561.957 253.691 557.029 255.717C552.137 257.75 547.395 260.375 542.153 261.29C543.382 256.419 546.026 252.194 547.909 247.635C549.741 243.142 554.145 239.139 558.252 236.694C566.105 231.922 580.441 225.045 581.016 221.438C581.597 217.795 556.833 225.425 550.049 227.736C537.778 231.854 535.539 233.754 523.305 237.879C511.632 241.811 499.715 245.846 489.948 253.368C487.306 255.417 454.966 268.135 454.966 268.135" fill="#FFB797"/>
<path d="M551.917 227.98C542.904 233.319 536.886 236.338 528.544 243.87" stroke="black" stroke-width="0.5" stroke-miterlimit="10"/>
<path d="M159.315 273.34C153.784 334.033 148.253 394.688 142.722 455.381C141.948 463.972 154.853 473.965 156.513 491.258L355.773 497.563C353.561 477.173 362.927 475.845 361.341 464.673C360.235 456.93 357.506 449.518 355.294 442.033C348.841 420.131 346.887 397.233 344.933 374.482C341.835 338.089 338.738 301.732 335.641 265.339L298.436 215.929L177.051 213.532" fill="#FC7F40"/>
<path d="M165.842 473.891L350.648 480.417" stroke="black" stroke-miterlimit="10"/>
<path d="M139.441 410.617C139.994 409.437 141.026 408.552 142.28 408.073C170.967 397.712 191.431 382.336 215.288 363.531C244.012 340.891 271.077 315.596 290.214 285.029C303.672 263.532 308.761 241.224 313.001 216.666C313.259 215.081 314.845 214.122 316.393 214.565L326.312 217.588C328.008 218.104 329.188 219.727 329.114 221.534C327.418 252.839 313.517 282.595 296.519 309.438C278.046 338.605 255.442 365.596 228.267 387.572C201.055 409.548 175.06 424.297 140.547 432.63L139.478 410.617H139.441Z" fill="#706242"/>
<path d="M233.651 425.33C234.941 425.477 236.305 425.588 237.78 425.625C255.111 426.399 274.026 421.163 286.231 408.294C310.825 382.225 321.371 341.002 306.954 307.374C305.147 303.133 302.787 298.819 298.805 296.459C291.946 292.44 283.06 295.795 276.718 300.552C267.205 307.668 260.199 317.55 252.013 326.179C237.301 341.665 218.754 353.059 203.636 368.177C199.396 372.38 195.377 376.989 193.054 382.483C190.694 387.977 190.251 394.541 193.054 399.814C197.22 407.704 206.291 409.696 212.486 415.337C219.381 421.605 225.17 424.371 233.687 425.33H233.651Z" fill="#706242"/>
<path d="M208.319 398.449C208.799 395.167 210.273 392.254 212.56 389.673C212.891 389.267 213.297 388.899 213.813 388.788C218.238 387.682 213.629 402.21 212.228 403.758C209.425 406.819 208.098 403.242 208.135 400.624C208.135 399.887 208.209 399.186 208.319 398.486V398.449Z" fill="#443A27"/>
<path d="M293.311 304.092C277.455 333.221 255.516 359.106 229.226 379.644C220.192 386.687 209.683 393.398 198.179 392.697" stroke="#443A27" stroke-miterlimit="10"/>
<path d="M272.846 363.863L257.212 380.64" stroke="#443A27" stroke-width="3" stroke-miterlimit="10"/>
<path d="M197.7 406.783C192.243 402.1 189.662 391.997 191.837 383.737" stroke="#443A27" stroke-miterlimit="10"/>
<path d="M302.013 299.114C302.013 299.114 296.961 290.965 285.641 295.758" stroke="#443A27" stroke-miterlimit="10"/>
<path d="M155.517 363.861L198.142 487.275L134.389 499.848L69.751 372.231" fill="#FFB797"/>
<path d="M189.071 464.193C189.514 468.618 191.615 472.674 193.68 476.619C200.539 489.672 207.618 503.425 207.581 518.175C207.544 530.785 202.272 542.695 197.109 554.199C196.667 555.195 195.708 556.375 194.75 555.859C194.381 555.637 194.16 555.195 194.012 554.789C191.357 547.894 192.685 540.188 194.012 532.887C184.794 545.645 183.688 561.795 181.549 576.913C180.959 580.969 180.259 585.283 177.456 588.27C175.613 590.187 172.368 591.22 170.377 589.487C169.971 591.588 169.123 593.616 167.906 595.386C167.501 595.976 167.021 596.566 166.358 596.898C164.698 597.746 162.67 596.529 161.601 594.981C160.569 593.432 160.052 591.551 158.909 590.077C157.176 587.864 154.153 586.832 152.641 584.435C151.018 581.854 151.608 578.425 150.244 575.696C149.728 574.627 148.917 573.705 148.179 572.746C143.349 566.257 142.87 557.85 141.505 550.143C139.994 541.663 138.408 533.329 137.412 524.738C135.311 506.56 134.647 487.091 124.064 472.157" fill="#FFB797"/>
<path d="M185.126 286.392L164.108 372.269L65.0681 388.714C65.0681 388.714 64.1832 349.444 68.7923 335.691C81.2922 298.523 109.094 232.263 128.379 220.021C147.663 207.779 200.244 196.201 224.58 199.593" fill="#FC7F40"/>
<path d="M185.126 286.393L164.072 372.232" stroke="black" stroke-miterlimit="10"/>
<path d="M194.418 531.891L203.267 516.073" stroke="black" stroke-miterlimit="10"/>
<path d="M170.192 588.27C167.906 569.207 171.704 550.623 174.58 531.854" stroke="black" stroke-miterlimit="10"/>
<path d="M159.167 588.27C159.167 588.27 153.895 561.206 159.167 533.367" stroke="black" stroke-miterlimit="10"/>
<path d="M150.281 575.697C150.281 575.697 146.594 549.185 148.106 533.367" stroke="black" stroke-miterlimit="10"/>
<path d="M342.683 348.45L336.194 272.16" stroke="black" stroke-miterlimit="10"/>
<path d="M187.375 206.821C190.509 219.026 199.027 229.498 209.683 236.209C220.34 242.92 233.061 245.98 245.671 246.165" stroke="black" stroke-miterlimit="10"/>
<path d="M258.614 245.353C273.326 245.353 287.596 233.996 293.311 217.735" stroke="black" stroke-miterlimit="10"/>
<path d="M261.01 78.9832C281.032 81.4169 300.575 95.7604 307.507 114.934C314.402 134.108 319.306 158.26 308.465 177.913C301.497 190.487 286.674 194.137 277.234 193.879C259.277 193.363 244.381 180.273 233.724 165.782C218.275 144.727 205.222 112.021 224.469 91.6306C234.572 80.9375 247.92 77.3977 261.047 78.9832H261.01Z" fill="#FFB797"/>
<path d="M221.04 126.733L208.577 155.9L203.23 207.374C203.23 207.374 208.024 222.75 230.406 232.337C264.255 246.865 280.7 225.479 280.7 225.479L278.893 189.602" fill="#FFB797"/>
<path d="M290.14 130.495C291.947 133.297 293.643 136.21 295.081 139.234C295.56 140.192 295.966 141.188 296.335 142.22C296.482 142.663 296.629 143.105 296.74 143.548C296.777 143.769 296.851 143.954 296.888 144.175C296.961 144.47 296.961 144.543 296.961 144.654C296.961 144.838 296.961 144.986 296.961 145.17C296.961 145.539 296.961 145.17 296.961 145.355C296.888 145.723 296.74 145.982 296.482 146.24C295.892 146.793 294.933 147.088 294.085 147.272C292.942 147.53 291.799 147.567 290.619 147.53C290.066 147.53 289.55 147.53 288.997 147.456C288.776 147.456 288.591 147.42 288.37 147.383C288.296 147.383 288.075 147.346 288.444 147.383C288.37 147.383 288.296 147.383 288.186 147.346C286.453 147.051 285.715 149.706 287.448 150.001C289.55 150.369 291.725 150.369 293.864 150.074C296.187 149.743 298.916 148.747 299.616 146.203C300.132 144.175 299.247 141.926 298.473 140.082C297.478 137.685 296.261 135.362 294.97 133.113C294.196 131.749 293.385 130.384 292.537 129.057C291.578 127.582 289.181 128.946 290.14 130.458V130.495Z" fill="black"/>
<path d="M266.615 131.675C267.61 134.588 269.86 136.431 271.666 135.841C273.473 135.215 274.137 132.375 273.141 129.463C272.146 126.55 269.897 124.706 268.09 125.296C266.283 125.923 265.619 128.762 266.615 131.675Z" fill="black"/>
<path d="M299.542 127.766C300.28 130.752 302.345 132.78 304.188 132.338C306.032 131.896 306.954 129.093 306.216 126.143C305.479 123.157 303.414 121.129 301.57 121.571C299.727 122.014 298.805 124.816 299.542 127.766Z" fill="black"/>
<path d="M305.995 95.3179C306.069 94.8754 306.106 94.3961 306.069 93.9536C305.848 88.312 298.989 81.7487 295.191 78.0245C290.951 73.8948 285.826 70.7237 280.479 68.1426C268.643 62.4273 255.295 59.5144 242.279 61.2105C235.31 62.0955 228.267 64.3816 222.183 67.9582C217.758 70.5762 214.477 75.0378 210.458 78.2826C205.959 81.8962 201.239 85.2516 197.441 89.6763C182.066 107.67 187.228 138.717 199.322 156.969C200.649 158.997 206.844 172.493 206.844 172.493C206.844 172.493 238.112 163.496 239.403 150.922C239.735 147.567 238.518 143.806 239.624 140.671C241.431 135.435 246.04 131.933 248.326 127.028C251.165 120.981 246.372 116.557 247.22 110.62C247.736 107.08 250.833 104.352 254.226 103.209C257.618 102.066 261.305 102.213 264.882 102.397C272.699 102.766 280.553 103.135 288.37 103.467C292.168 103.651 296.076 103.799 299.579 102.434C302.676 101.254 305.405 98.5627 305.958 95.3548L305.995 95.3179Z" fill="black"/>
<path d="M243.127 172.456C243.127 172.456 250.317 192.257 279.779 196.055" stroke="black" stroke-miterlimit="10"/>
<path d="M245.155 142.404C243.901 139.713 242.242 137.132 239.956 135.251C233.798 130.236 225.391 133.408 222.92 140.745C219.934 149.632 226.829 168.732 235.826 170.354C242.242 171.497 246.667 167.22 246.998 162.795" fill="#FFB797"/>
<path d="M230.996 142.995C232.729 142.663 234.572 143.327 235.9 144.506C237.227 145.686 238.112 147.309 238.702 148.968C239.956 152.471 240.14 156.343 239.218 159.919" stroke="black" stroke-width="0.75" stroke-miterlimit="10"/>
<path d="M236.969 147.64C233.429 149.042 231.327 153.356 232.397 157.006" stroke="black" stroke-width="0.75" stroke-miterlimit="10"/>
<path d="M246.077 165.819C246.077 165.819 238.296 179.02 227.271 163.017" stroke="black" stroke-width="0.75" stroke-miterlimit="10"/>
<path d="M550.145 396.68L538.973 426.584C538.973 426.584 495.684 569.134 526.805 935.724H644.798C644.798 935.724 629.164 672.968 632.851 605.86C636.538 538.751 647.121 463.899 637.128 410.876" fill="#A7976D"/>
<path d="M624.923 935.687C624.923 935.687 615.853 661.059 619.54 593.95C623.227 526.842 627.246 463.863 617.254 410.84" stroke="#BF8C7F" stroke-miterlimit="10"/>
<path d="M596.015 407.889C596.015 578.795 658.662 770.755 722.821 922.56L844.796 892.029C844.796 892.029 747.525 614.303 737.865 587.46C728.204 560.616 722.821 483.257 663.308 396.717" fill="#A7976D"/>
<path d="M818.948 898.482C818.948 898.482 729.716 617.401 720.055 590.557C710.395 563.714 705.011 486.355 645.499 399.814" stroke="#BF8C7F" stroke-miterlimit="10"/>
<path d="M632.63 661.943C632.63 661.943 607.003 540.889 602.947 511.501" stroke="black" stroke-miterlimit="10"/>
<path d="M640.926 445.537L696.715 502.579" stroke="#BF8C7F" stroke-miterlimit="10"/>
<path d="M525.846 499.407L571.384 443.803" stroke="#BF8C7F" stroke-miterlimit="10"/>
<path d="M585.175 209.071C585.654 210.509 585.175 232.375 585.175 232.375L555.16 243.142C555.16 243.142 561.281 270.759 599.481 271.829C637.645 272.898 674.37 250.295 674.37 250.295L645.277 228.429L641.111 184.44" fill="#FFD5C2"/>
<path d="M396.128 410.581C383.591 415.595 368.031 422.454 364.048 427.874C352.138 444.209 336.947 466.332 340.339 467.918C342.035 468.729 345.169 466.406 346.571 465.705C348.009 464.968 354.572 459.806 356.342 458.7C355.309 462.903 352.286 467.881 351.253 472.084C350.885 473.67 345.391 487.571 345.391 487.571C345.391 487.571 335.251 498.596 333.37 502.173C333.223 502.431 333.112 502.652 333.001 502.91C332.559 503.832 332.19 504.827 332.301 505.86C332.375 506.487 333.37 507.224 333.37 507.224C333.37 507.224 332.522 508.699 332.301 509.178C332.153 509.51 331.858 511.501 332.08 511.796C333.075 513.087 335.988 511.133 338.864 509.879C338.127 511.243 337.5 512.497 339.122 512.313C340.966 512.055 342.994 510.985 346.46 508.994C345.723 511.354 354.793 507.777 359.181 505.676C364.343 503.205 368.731 501.103 373.414 497.932C387.979 488.087 401.659 470.683 416.887 457.778" fill="#FFD5C2"/>
<path d="M356.379 458.7L363.716 454.57" stroke="black" stroke-width="0.75" stroke-miterlimit="10"/>
<path d="M346.46 508.994C347.013 506.561 348.009 504.311 351.733 501.656C355.457 499.039 363.385 493.729 363.385 493.729L373.119 482.483C373.119 482.483 379.387 455.455 385.84 446.9" stroke="black" stroke-width="0.75" stroke-miterlimit="10"/>
<path d="M364.196 479.643C364.196 479.643 354.056 495.019 353.724 495.13C353.392 495.24 342.404 503.869 340.745 506.155C339.049 508.478 339.122 509.989 339.122 509.989" stroke="black" stroke-width="0.75" stroke-miterlimit="10"/>
<path d="M333.37 507.224C333.37 507.224 336.394 504.274 339.159 501.472C341.925 498.706 350.848 489.119 350.848 489.119L358.591 473.78" stroke="black" stroke-width="0.75" stroke-miterlimit="10"/>
<path d="M389.896 415.227L453.502 365.559L500.146 287.352L536.834 344.689L512.941 389.195C507.557 399.261 499.593 407.705 489.932 413.715L398.672 470.315" fill="#FFD5C2"/>
<path d="M565.337 236.246C544.356 243.104 524.002 249.225 509.438 265.781C494.873 282.374 464.379 330.087 464.379 330.087L524.15 377.211L575.514 320.39" fill="#E3A32A"/>
<path d="M564.636 236.247C575.624 247.493 588.751 257.633 604.422 259.661C620.093 261.689 641.221 244.432 651.25 232.375L695.313 294.137C695.313 294.137 705.306 360.692 704.2 395.168C703.499 416.96 717.511 441.849 703.315 452.653C639.931 456.967 583.663 456.967 534.032 454.718C507.152 453.501 525.883 417.956 531.524 382.042C537.903 341.334 534.032 294.874 534.032 294.874" fill="#E3A32A"/>
<path d="M663.603 290.006L668.728 339.748L757.002 349.04C749.848 324.335 741.257 285.545 724.554 265.597C707.85 245.649 677.025 238.68 651.324 232.337" fill="#E3A32A"/>
<path d="M533.737 363.863L536.798 304.24" stroke="black" stroke-width="0.75" stroke-linejoin="round"/>
<path d="M663.603 291.962L669.466 346.681" stroke="black" stroke-width="0.75" stroke-linejoin="round"/>
<path d="M743.027 347.492L699.038 339.786L619.024 299.005L614.931 295.797L578.648 282.817C578.648 282.817 577.284 308.37 570.094 309.624C562.903 310.878 556.451 296.977 553.021 299.521C549.592 302.065 563.567 318.142 567.549 324.41C569.872 328.023 586.244 340.155 599.592 349.705L599.518 350C601.177 351.032 602.8 352.064 604.385 353.134C611.354 358.075 616.664 361.725 617.291 362.168C627.431 369.542 637.313 377.064 648.743 383.111C664.009 391.187 686.87 406.194 704.163 409.697C715.114 411.909 729.568 410.434 736.39 401.732C749.627 384.844 745.792 367.33 743.064 347.529L743.027 347.492Z" fill="#FFD5C2"/>
<path d="M495.573 201.992C494.615 199.374 494.172 196.387 494.467 193.253C495.131 186.062 499.777 180.237 505.455 179.425C513.014 178.356 519.393 185.804 519.393 195.17C519.393 200.259 517.513 204.757 514.6 207.67C509.696 212.5 505.455 224.146 505.455 232" stroke="#513306" stroke-width="4" stroke-miterlimit="10"/>
<path d="M492.5 236.5L443.915 269.838C440.633 272.013 441.85 278.355 445.574 278.355H568.102C571.826 278.355 573.043 272.05 569.762 269.838C569.762 269.838 517.82 232.5 507.5 232.5C497.18 232.5 492.5 236.5 492.5 236.5Z" stroke="#513306" stroke-width="4" stroke-miterlimit="10"/>
<path d="M477.21 244.284C477.21 244.284 431.488 261.172 418.951 295.537C406.857 328.686 385.766 418.176 385.766 418.176L467.255 429.091L463.936 316.334" fill="#83CDD1"/>
<path d="M580.565 320.058L536.539 244.248C536.539 244.248 527.063 259.66 506.857 259.66C486.65 259.66 477.174 244.248 477.174 244.248C477.174 244.248 460.36 272.861 447.528 294.948C439.674 308.443 433.295 319.468 433.148 320.058L414.048 499.37H599.629L580.529 320.058H580.565Z" fill="#83CDD1"/>
<path d="M536.539 244.284C536.539 244.284 582.262 261.172 594.798 295.537C606.893 328.686 627.984 418.176 627.984 418.176L546.495 429.091L536.502 317.882" fill="#83CDD1"/>
<mask id="mask0_291_1935" style="mask-type:luminance" maskUnits="userSpaceOnUse" x="385" y="244" width="244" height="256">
<path d="M627.984 418.176C627.984 418.176 606.893 328.686 594.798 295.537C582.262 261.209 536.539 244.284 536.539 244.284C536.539 244.284 527.063 259.697 506.857 259.697C486.65 259.697 477.174 244.284 477.174 244.284C477.174 244.284 431.452 261.172 418.915 295.537C406.821 328.686 385.729 418.176 385.729 418.176L422.197 423.044L414.085 499.37H599.665L591.553 423.044L628.021 418.176H627.984Z" fill="white"/>
</mask>
<g mask="url(#mask0_291_1935)">
<path d="M412.057 478.243C425.552 478.906 439.048 479.607 452.543 480.271C465.596 480.934 478.649 481.819 491.702 482.004C504.755 482.225 517.808 481.155 530.824 480.307C544.061 479.422 557.299 478.796 570.573 478.427C585.506 478.021 600.44 477.948 615.41 478.206C617.77 478.243 617.77 474.555 615.41 474.518C588.899 474.076 562.35 474.629 535.839 476.288C522.786 477.1 509.733 478.316 496.643 478.353C483.479 478.39 470.279 477.468 457.115 476.805C442.108 476.067 427.064 475.293 412.057 474.555C409.697 474.445 409.697 478.132 412.057 478.243Z" fill="#53A7AB"/>
<path d="M411.209 444.725C437.646 448.818 464.6 449.888 491.37 449.482C504.718 449.261 517.992 448.413 531.193 446.495C544.614 444.578 557.962 442.255 571.495 444.283C584.953 446.311 598.559 450.773 612.165 447.048C614.452 446.422 613.493 442.845 611.17 443.509C598.854 446.901 586.355 443.066 574.15 441.038C561.465 438.936 549.113 440.153 536.466 442.034C510.028 445.942 483.516 446.422 456.857 445.352C441.887 444.725 426.953 443.509 412.167 441.186C409.844 440.817 408.849 444.394 411.172 444.725H411.209Z" fill="#53A7AB"/>
<path d="M387.204 403.538C420.537 404.054 453.207 411.392 486.319 414.416C503.059 415.928 519.725 416.001 536.466 414.489C553.39 412.941 570.167 410.286 587.055 408.369C605.381 406.304 624.555 406.967 642.291 401.4C644.54 400.699 643.581 397.122 641.295 397.86C625.513 402.801 608.736 402.432 592.402 404.128C575.514 405.861 558.7 408.553 541.812 410.323C525.219 412.056 508.663 412.498 491.997 411.245C475.404 409.991 458.959 407.521 442.514 405.161C424.151 402.58 405.715 400.183 387.168 399.888C384.808 399.851 384.808 403.538 387.168 403.575L387.204 403.538Z" fill="#53A7AB"/>
<path d="M393.952 373.119C424.077 370.87 452.211 385.619 482.115 386.614C490.227 386.872 498.302 386.43 506.414 386.356C514.452 386.246 522.306 386.836 530.308 387.905C538.014 388.9 545.094 388.458 552.616 386.688C560.359 384.844 568.102 383.111 575.956 381.931C593.729 379.24 611.76 378.502 629.68 377.728C632.04 377.617 632.04 373.93 629.68 374.041C613.935 374.704 598.117 375.405 582.446 377.322C574.666 378.281 566.922 379.535 559.253 381.268C551.62 383.001 544.172 385.287 536.244 384.808C528.353 384.328 520.61 382.816 512.646 382.669C504.534 382.521 496.458 383.001 488.346 383.001C472.86 383.038 458.074 379.94 443.104 376.253C426.99 372.271 410.619 368.215 393.878 369.432C391.518 369.616 391.518 373.303 393.878 373.119H393.952Z" fill="#53A7AB"/>
<path d="M399.557 347.049C427.912 353.833 457.189 356.525 486.282 354.718C493.693 354.276 501.141 353.502 508.59 353.465C516.112 353.391 523.523 354.497 530.972 355.161C537.941 355.788 544.762 355.603 551.657 354.276C558.811 352.912 565.78 350.847 573.007 349.704C581.414 348.376 589.968 347.86 598.449 347.196C606.893 346.533 615.337 345.869 623.78 345.205C626.14 345.021 626.14 341.334 623.78 341.518C608.921 342.661 593.987 343.472 579.201 345.168C572.122 345.98 565.226 347.381 558.331 349.04C551.067 350.773 543.877 352.174 536.392 351.842C529.165 351.547 522.048 350.294 514.858 349.888C507.41 349.482 499.962 350.036 492.55 350.589C478.096 351.658 463.642 351.879 449.151 350.92C432.779 349.814 416.518 347.307 400.553 343.472C398.23 342.919 397.271 346.459 399.557 347.012V347.049Z" fill="#53A7AB"/>
<path d="M409.66 316.63C419.173 324.041 429.608 328.945 441.555 330.789C453.723 332.669 466.149 332.116 478.428 332.006C491.776 331.858 505.271 331.231 518.619 331.784C525.219 332.043 531.414 333.96 537.941 334.66C544.135 335.324 550.145 333.481 556.156 332.227C570.831 329.203 585.801 327.765 600.809 327.913C603.169 327.913 603.169 324.262 600.809 324.225C588.161 324.115 575.551 325.11 563.088 327.175C556.856 328.208 550.735 330.015 544.504 330.863C537.941 331.748 531.783 329.498 525.367 328.65C519.283 327.839 513.125 327.986 506.967 328.023C500.22 328.097 493.472 328.171 486.724 328.208C474.482 328.318 462.093 328.908 449.851 328.023C443.177 327.544 436.54 326.438 430.198 324.225C423.672 321.939 417.735 318.252 412.278 314.012C410.434 312.574 407.816 315.155 409.66 316.63Z" fill="#53A7AB"/>
<path d="M425.257 284.808C436.061 288.754 446.902 292.736 458.111 295.428C469.173 298.119 480.345 299.004 491.665 299.52C497.528 299.779 503.428 300.037 509.29 300.295C515.116 300.553 521.016 301.032 526.842 300.295C532.483 299.631 537.83 297.64 543.213 295.944C548.744 294.174 554.349 292.588 559.99 291.077C572.638 287.721 585.433 284.919 598.228 282.116C600.551 281.6 599.555 278.06 597.232 278.577C586.023 281.01 574.85 283.481 563.751 286.283C558.257 287.684 552.8 289.159 547.38 290.782C541.96 292.404 536.65 294.432 531.156 295.759C525.441 297.161 519.652 297.013 513.826 296.755C507.926 296.497 502.026 296.239 496.127 295.981C484.844 295.501 473.561 295.022 462.499 292.625C450.073 289.934 438.126 285.546 426.216 281.195C423.967 280.383 423.008 283.923 425.22 284.734L425.257 284.808Z" fill="#53A7AB"/>
<path d="M436.098 260.325C453.207 271.424 472.786 278.429 493.103 280.42C502.985 281.379 512.941 281.084 522.712 279.646C534.106 277.95 545.204 274.816 556.709 273.82C569.393 272.714 582.188 272.825 594.725 270.207C597.048 269.727 596.052 266.151 593.729 266.667C582.704 268.99 571.421 269.101 560.212 269.875C549.371 270.649 538.899 272.898 528.28 274.963C508.405 278.798 488.052 277.803 468.73 271.718C457.853 268.289 447.528 263.348 437.978 257.117C435.987 255.826 434.144 258.997 436.135 260.288L436.098 260.325Z" fill="#53A7AB"/>
</g>
<path d="M468.546 248.083C468.546 248.083 477.543 271.46 503.98 272.64C536.539 274.078 545.204 248.083 545.204 248.083" stroke="#30868A" stroke-miterlimit="10"/>
<path d="M537.498 328.65C537.498 328.65 559.548 280.051 595.388 297.197" stroke="#30868A" stroke-miterlimit="10"/>
<path d="M591.996 423.007L546.495 429.091L536.539 317.882" stroke="#30868A" stroke-miterlimit="10"/>
<path d="M422.418 287.868C422.418 287.868 424.815 318.657 431.452 335.213" stroke="#30868A" stroke-miterlimit="10"/>
<path d="M422.197 423.044C422.381 421.348 433.148 320.059 433.148 320.059" stroke="#30868A" stroke-miterlimit="10"/>
<path d="M487.793 462.056C502.69 451.805 517.034 440.485 530.677 428.133" stroke="black" stroke-linejoin="round"/>
<path d="M491.591 431.156C497.565 429.939 511.281 425.625 516.702 420.094" stroke="black" stroke-linejoin="round"/>
<path d="M610.395 291.74C608.773 290.118 607.188 288.422 605.528 286.873C602.283 283.813 598.191 281.969 594.577 279.425C588.899 275.406 583.147 271.497 577.431 267.515C575.883 266.446 574.297 265.339 572.49 264.86C568.545 263.754 564.341 265.597 561.06 268.031C553.501 273.562 548.412 282.375 547.454 291.667C549.113 291.888 550.698 291.593 552.173 290.966C551.841 292.33 551.583 293.695 551.436 295.096C553.943 295.428 556.229 294.543 558.368 293.178C557.409 295.796 556.709 298.488 556.414 301.253C562.461 302.065 567.033 296.054 572.122 292.478C568.287 297.677 565.816 303.908 565.116 310.324C572.269 311.283 577.542 303.392 583.736 299.779C586.059 302.618 588.604 305.273 591.369 307.559C595.683 313.163 600.661 318.104 606.671 321.534C611.539 327.028 617.106 331.637 623.891 334.513C624.739 329.092 625.624 323.672 626.472 318.252C626.988 314.896 627.541 311.578 628.058 308.222C628.648 304.609 626.472 303.429 623.596 301.512C620.72 299.557 617.623 297.935 614.857 295.796C613.272 294.543 611.797 293.178 610.359 291.74H610.395Z" fill="#FFD5C2"/>
<path d="M594.466 309.698C601.583 318.547 609.105 327.692 619.54 332.153" stroke="black" stroke-width="0.75" stroke-linejoin="round"/>
<path d="M572.122 292.44C575.919 288.237 583.183 283.333 588.788 282.374" stroke="black" stroke-width="0.75" stroke-linejoin="round"/>
<path d="M560.359 289.676C566.222 282.522 573.412 275.811 582.446 273.82" stroke="black" stroke-width="0.75" stroke-linejoin="round"/>
<path d="M552.505 288.348C556.893 281.084 565.374 272.161 573.154 268.695" stroke="black" stroke-width="0.75" stroke-linejoin="round"/>
<path d="M699.038 339.785L726.655 355.567" stroke="black" stroke-width="0.75" stroke-linejoin="round"/>
<path d="M566.369 246.902C573.301 262.352 591.959 267.772 607.63 267.035C626.878 266.113 645.314 255.899 657.298 240.966" stroke="black" stroke-miterlimit="10"/>
<path d="M590.89 113.423C593.618 110.989 596.605 108.887 599.813 107.339C613.972 100.48 631.007 106.675 643.028 115.156C651.103 120.871 657.703 128.872 661.022 138.164C667.511 156.306 660.948 176.991 649.481 192.441C641.59 203.097 633.478 207.928 621.162 212.869C613.493 215.929 605.27 216.077 597.158 215.597C586.907 214.97 574.223 213.237 568.766 203.282C562.793 192.367 562.793 179.683 566.074 167.921C569.208 156.675 571.421 142.995 576.214 132.928C579.57 125.886 584.806 118.843 590.89 113.386V113.423Z" fill="#FFD5C2"/>
<path d="M628.315 207.337C616.442 217.367 599.923 218.989 585.211 215.671" stroke="black" stroke-linejoin="round"/>
<path d="M658.736 108.85C657.076 106.491 655.306 104.315 652.578 102.361C643.581 95.9081 631.855 93.9538 620.978 94.1382C607.003 94.3594 592.991 99.411 582.483 108.777C579.754 111.21 576.214 114.455 574.997 117.995C574.039 120.797 572.442 124.513 572 127.5C571.484 131.076 571.114 133.305 571.5 137C571.723 139.139 573.006 141.483 572.564 142.405C572.564 142.405 577.099 133.334 580.676 129.462C584.732 125.111 588.567 119.322 594.946 120.982C598.67 121.977 601.583 124.964 603.574 128.43C605.565 131.896 606.782 135.804 608.183 139.602C609.584 143.4 611.317 147.161 614.046 149.927C618.065 153.983 623.854 155.495 628.242 159.108C635.174 164.86 638.566 174.668 638.898 183.887C639.267 193.953 639.599 204.13 641.479 214.122C642.032 217.072 642.917 220.243 645.277 222.087C647.784 224.041 651.214 224.004 654.385 224.262C657.556 224.52 661.132 225.405 662.533 228.245C664.008 231.158 662.497 234.734 663.271 237.905C664.451 242.588 669.982 244.542 674.738 245.427C685.874 247.492 698.484 247.492 707.15 240.191C710.063 237.758 712.754 234.402 716.515 234.144C720.166 233.886 723.374 236.652 726.987 237.168C732.96 238.016 738.307 232.006 738.565 225.958C738.86 219.911 735.431 214.307 731.338 209.845C726.877 204.978 721.456 200.959 715.483 198.12C710.763 195.87 705.417 194.137 702.356 189.897C697.71 183.444 700.439 174.484 699.369 166.63C698.448 160.067 694.613 153.983 689.119 150.332C685.837 148.157 682.002 146.793 679.163 144.064C675.07 140.155 673.853 134.219 671.789 128.946C669.429 122.936 665.594 118.843 661.98 113.718C660.764 111.985 659.731 110.362 658.662 108.777L658.736 108.85Z" fill="#513306"/>
<path d="M596.31 162.316C595.573 164.565 596.384 166.851 598.154 167.404C599.924 167.994 601.915 166.63 602.689 164.418C603.426 162.169 602.615 159.882 600.845 159.329C599.112 158.739 597.084 160.104 596.31 162.316Z" fill="black"/>
<path d="M572.011 156.011C571.273 158.26 572.084 160.546 573.854 161.099C575.624 161.689 577.615 160.325 578.39 158.113C579.127 155.863 578.316 153.577 576.546 153.024C574.776 152.434 572.785 153.798 572.011 156.011Z" fill="black"/>
<path d="M579.935 170.737C578.091 172.908 578.634 172.552 576.654 174.623C575.136 176.215 571.583 179.06 572.405 181.283C573.11 183.241 576.45 183.636 579.474 183.601" stroke="black" stroke-width="3" stroke-linecap="round" stroke-linejoin="round"/>
<path d="M614.673 153.541C613.087 150.628 610.875 148.01 607.962 146.35C604.938 144.617 601.472 144.212 598.08 144.875C597.084 145.06 596.531 146.24 596.789 147.161C597.084 148.194 598.08 148.636 599.075 148.452C599.739 148.341 600.255 148.268 601.03 148.231C601.398 148.231 601.767 148.231 602.136 148.231C602.283 148.231 602.468 148.231 602.615 148.268C602.763 148.268 602.763 148.268 602.615 148.268C602.689 148.268 602.726 148.268 602.799 148.268C604.238 148.563 605.086 148.858 606.266 149.558C608.515 150.886 610.174 152.951 611.465 155.347C612.608 157.449 615.779 155.568 614.636 153.504L614.673 153.541Z" fill="black"/>
<path d="M582.6 143.944C581.973 141.695 580.351 139.667 577.954 139.151C575.852 138.708 573.64 139.262 571.907 140.515C571.501 140.81 571.206 141.105 571.059 141.621C570.948 142.064 570.985 142.654 571.243 143.059C571.722 143.834 572.939 144.313 573.751 143.723C574.082 143.502 574.414 143.281 574.746 143.096C574.857 143.059 574.93 143.023 575.041 142.949C575.152 142.875 574.562 143.133 574.967 142.949C575.152 142.875 575.299 142.838 575.484 142.801C575.668 142.764 575.852 142.728 576.037 142.691C576.442 142.617 575.594 142.728 575.926 142.691C576 142.691 576.11 142.691 576.184 142.691C576.368 142.691 576.553 142.691 576.737 142.691H577.032C577.032 142.691 576.479 142.58 576.885 142.691C577.032 142.691 577.217 142.764 577.364 142.801C577.438 142.801 577.548 142.875 577.622 142.912C577.77 142.949 577.143 142.691 577.512 142.912C577.659 142.986 577.807 143.059 577.954 143.17C578.286 143.391 577.806 143.023 577.88 143.096C577.954 143.17 578.028 143.244 578.101 143.318C578.249 143.428 578.323 143.576 578.47 143.723C578.101 143.354 578.323 143.539 578.396 143.649C578.47 143.76 578.544 143.871 578.618 143.981C578.655 144.055 578.728 144.166 578.765 144.239C578.765 144.276 578.802 144.35 578.839 144.387C578.913 144.497 578.839 144.461 578.765 144.202C578.765 144.461 578.95 144.719 579.023 144.94C579.281 145.862 580.351 146.525 581.309 146.23C582.268 145.935 582.858 144.977 582.6 143.981V143.944Z" fill="black"/>
<path d="M627.984 167.994C631.524 163.938 637.792 162.131 642.622 165.118C653.537 171.829 647.932 185.398 641.332 192.072C634.695 198.783 624.075 198.857 622.416 190.339" fill="#FFD5C2"/>
<path d="M645.314 186.947C645.314 186.947 632.666 206.084 623.19 192.625" stroke="black" stroke-linejoin="round"/>
<path d="M641.147 171.828C638.161 171.828 635.284 173.266 633.293 175.442C631.302 177.654 630.122 180.53 629.717 183.443C629.348 185.951 629.643 188.79 631.487 190.523" stroke="black" stroke-linejoin="round"/>
<path d="M634.437 174.779C635.137 174.742 635.838 175 636.465 175.405C637.866 176.327 638.824 177.876 639.156 179.535C639.488 181.194 639.156 182.928 638.419 184.476" stroke="black" stroke-linejoin="round"/>
<path d="M655.638 111.21C654.09 105.274 657.482 98.7841 662.718 95.5762C667.954 92.3683 674.554 92.0733 680.49 93.4744C684.215 94.3594 687.902 95.9449 690.483 98.7841C693.064 101.623 694.318 105.864 692.88 109.404C692.105 111.321 690.63 112.87 689.082 114.234C684.325 118.4 678.426 121.24 672.194 122.309C666.811 123.231 660.505 122.53 657.113 118.253" fill="#513306"/>
<path d="M596.473 105.539C592.359 107.894 586.834 106.677 583.383 103.421C579.932 100.165 578.378 95.303 578.222 90.5929C578.129 87.6368 578.566 84.5667 580.161 82.0678C581.756 79.569 584.665 77.7766 587.595 78.1332C589.181 78.3229 590.634 79.1096 591.965 79.9885C596.034 82.6929 599.344 86.5181 601.401 90.9487C603.177 94.7767 603.93 99.6201 601.426 103.015" fill="#513306"/>
<path d="M273 166.221C274.839 165.726 276.571 164.924 278.406 164.391C280.282 163.846 280.878 163.937 282.274 165.295C283.341 166.333 284.26 167.516 285.518 168.342C286.668 169.096 287.584 167.544 288.325 166.803C289.133 165.994 289.87 164.885 290.778 164.204C291.677 163.53 292.93 164.702 293.596 165.202C294.882 166.166 297.4 168.078 298.638 166.221" stroke="black" stroke-width="4" stroke-linecap="round"/>
<path d="M263.141 117.606C266.322 118.886 269.81 117.775 273.069 117.231C273.252 117.201 275.82 116.621 275.445 116.434" stroke="black" stroke-width="4" stroke-linecap="round"/>
<path d="M299.908 112.918C302.437 112.428 304.955 112.186 307.525 112.186" stroke="black" stroke-width="4" stroke-linecap="round"/>
<path d="M578 195.806C578.513 197.043 579.609 197.97 580.658 198.745C581.463 199.341 582.199 198.775 582.875 198.243C584.431 197.018 585.923 195.74 587.678 194.803C588.127 194.563 588.713 194.434 589 194" stroke="black" stroke-width="3" stroke-linecap="round"/>
<circle cx="339.5" cy="100.5" r="3.5" fill="#180000"/>
<circle cx="369.5" cy="100.5" r="3.5" fill="#180000"/>
<circle cx="354.5" cy="100.5" r="3.5" fill="#180000"/>
<circle cx="384.5" cy="100.5" r="3.5" fill="#180000"/>
</g>
<defs>
<clipPath id="clip0_291_1935">
<rect width="800" height="600" fill="white"/>
</clipPath>
</defs>
</svg>
