<svg width="800" height="600" viewBox="0 0 800 600" fill="none" xmlns="http://www.w3.org/2000/svg">
<g clip-path="url(#clip0_291_1934)">
<path d="M498.863 228.21C498.863 231.226 500.873 233.689 503.336 233.689C505.799 233.689 507.809 231.226 507.809 228.21C507.809 225.195 505.799 222.732 503.336 222.732C500.873 222.732 498.863 225.195 498.863 228.21Z" fill="#E8B077"/>
<path d="M503.386 228.211C505.045 223.938 505.799 219.013 505.296 213.836C504.14 202.025 496.249 192.475 486.549 191.168C473.632 189.409 462.725 201.673 462.725 217.053C462.725 225.396 465.942 232.784 470.918 237.559C479.261 245.5 484.086 260.579 484.086 273.496V270.731" stroke="#E8B077" stroke-width="5" stroke-linejoin="round"/>
<path d="M481.674 273.496C551.034 273.496 583.251 317.424 583.251 317.424H380.096C380.096 317.424 412.314 273.496 481.674 273.496Z" stroke="#E8B077" stroke-width="5" stroke-linejoin="round"/>
<path d="M617.629 376.932C606.923 299.53 538.82 278.169 538.82 278.169C538.82 278.169 501.225 293.75 478.406 292.444C455.588 291.137 420.858 276.662 420.858 276.662C420.858 276.662 352.704 302.647 334.208 415.733C317.069 520.376 315.26 603.558 326.619 614.012C334.66 621.35 345.718 624.416 351.548 625.572C351.749 626.578 352 627.432 352.302 627.985C360.796 645.878 386.881 670.656 386.881 670.656H587.121C587.121 670.656 614.312 646.531 614.312 621.702C614.312 618.586 613.859 612.002 613.105 602.905C616.925 599.688 620.745 595.768 624.062 590.842C636.175 572.899 628.335 454.283 617.629 376.932Z" fill="#FC7F40"/>
<path d="M352.05 628.387C376.176 632.006 400.703 630.498 424.175 623.813C425.331 623.461 425.884 622.507 426.034 621.401C434.227 553.297 431.965 483.988 419.299 416.538C417.54 407.038 415.53 397.64 413.318 388.241C411.107 378.741 408.996 369.192 409.147 359.341C409.197 356.124 404.171 356.124 404.121 359.341C403.819 376.329 409.499 393.066 412.816 409.602C416.234 426.539 418.948 443.578 421.008 460.717C425.13 494.844 426.587 529.323 425.431 563.701C424.778 583.002 423.27 602.251 420.958 621.401C421.561 620.597 422.164 619.792 422.818 618.988C400.251 625.422 376.528 627.03 353.357 623.562C350.191 623.11 348.834 627.935 352 628.387H352.05Z" fill="#A54E4E"/>
<path d="M580.738 350.444C584.758 416.587 591.544 482.53 601.093 548.12C603.757 566.516 606.672 584.861 609.738 603.156C610.291 606.322 615.116 604.965 614.563 601.799C603.556 536.912 595.313 471.573 589.734 405.982C588.176 387.486 586.819 368.94 585.713 350.394C585.512 347.177 580.486 347.177 580.687 350.394L580.738 350.444Z" fill="#A54E4E"/>
<path d="M428.447 282.492C424.879 287.216 421.612 292.142 418.747 297.268C418.094 298.424 418.445 300.083 419.652 300.686C420.858 301.289 422.416 300.988 423.069 299.781C425.985 294.655 429.201 289.679 432.77 285.005C433.574 283.949 432.971 282.14 431.865 281.587C430.558 280.883 429.302 281.386 428.447 282.492Z" fill="#A54E4E"/>
<path d="M453.628 290.333C449.657 295.309 446.793 301.039 445.385 307.271C445.084 308.528 445.787 310.036 447.144 310.387C448.401 310.689 449.909 309.985 450.261 308.628C451.467 303.2 453.879 298.124 457.197 293.952C458.001 292.947 458.252 291.389 457.197 290.384C456.292 289.529 454.533 289.278 453.628 290.384V290.333Z" fill="#A54E4E"/>
<path d="M485.493 293.7C483.583 300.636 482.478 307.773 482.226 314.91C482.176 316.267 483.433 317.423 484.739 317.423C486.147 317.423 487.202 316.267 487.252 314.91C487.504 308.175 488.559 301.54 490.369 295.006C491.223 291.89 486.398 290.533 485.544 293.649L485.493 293.7Z" fill="#A54E4E"/>
<path d="M504.592 295.208C504.291 295.158 504.039 295.007 503.838 294.856C503.687 294.655 503.687 294.705 503.838 294.957C503.838 294.605 503.939 295.308 503.939 295.359C504.14 296.213 504.24 297.118 504.391 297.972C504.693 299.681 504.994 301.39 505.296 303.149C505.949 306.718 506.552 310.286 507.206 313.855C507.457 315.212 509.065 315.966 510.322 315.614C511.729 315.212 512.332 313.855 512.081 312.498C511.327 308.276 510.573 304.004 509.819 299.782C509.467 297.771 509.266 295.66 508.713 293.7C508.161 291.79 506.753 290.031 504.592 290.132C503.235 290.182 502.079 291.237 502.079 292.645C502.079 293.951 503.235 295.208 504.592 295.158V295.208Z" fill="#A54E4E"/>
<path d="M520.927 288.021C525.199 293.449 528.567 299.682 530.879 306.216C531.331 307.472 532.588 308.326 533.995 307.975C535.251 307.623 536.206 306.165 535.754 304.858C533.14 297.47 529.371 290.635 524.546 284.453C523.691 283.397 521.882 283.598 520.977 284.453C519.922 285.508 520.123 286.915 520.977 288.021H520.927Z" fill="#A54E4E"/>
<path d="M531.733 283.095C539.222 290.182 544.701 299.128 547.415 309.08C548.269 312.196 553.144 310.889 552.24 307.723C549.274 296.967 543.394 287.166 535.252 279.526C532.889 277.315 529.321 280.883 531.683 283.095H531.733Z" fill="#A54E4E"/>
<path d="M465.389 555.157C500.27 536.109 531.431 510.626 557.014 480.219C559.075 477.756 555.557 474.187 553.446 476.65C528.114 506.756 497.405 531.937 462.876 550.785C460.061 552.343 462.574 556.665 465.389 555.107V555.157Z" fill="#A54E4E"/>
<path d="M470.666 512.184L517.459 492.834C520.424 491.628 519.117 486.752 516.102 488.009L469.309 507.359C466.344 508.566 467.65 513.441 470.666 512.184Z" fill="#A54E4E"/>
<path d="M763 202L40 202" stroke="#E8B077" stroke-width="10" stroke-linejoin="round"/>
<path d="M100.284 228.21C100.284 231.226 102.345 233.689 104.908 233.689C107.472 233.689 109.532 231.226 109.532 228.21C109.532 225.195 107.472 222.732 104.908 222.732C102.345 222.732 100.284 225.195 100.284 228.21Z" fill="#E8B077"/>
<path d="M104.909 228.211C106.618 223.938 107.372 219.013 106.869 213.836C105.663 202.025 97.5707 192.475 87.5688 191.168C74.2999 189.409 63.0415 201.673 63.0415 217.053C63.0415 225.396 66.3587 232.784 71.4853 237.559C80.0799 245.5 85.0055 260.579 85.0055 273.496V270.731" stroke="#E8B077" stroke-width="5" stroke-linejoin="round"/>
<path d="M82.5928 273.496C154.013 273.496 187.186 317.424 187.186 317.424H-22C-22 317.424 11.1721 273.496 82.5928 273.496Z" stroke="#E8B077" stroke-width="5" stroke-linejoin="round"/>
<path d="M691.562 228.21C691.562 231.226 693.623 233.689 696.186 233.689C698.75 233.689 700.81 231.226 700.81 228.21C700.81 225.195 698.75 222.732 696.186 222.732C693.623 222.732 691.562 225.195 691.562 228.21Z" fill="#E8B077"/>
<path d="M696.186 228.211C697.895 223.938 698.649 219.013 698.147 213.836C696.94 202.025 688.848 192.475 678.846 191.168C665.578 189.409 654.319 201.673 654.319 217.053C654.319 225.396 657.636 232.784 662.763 237.559C671.358 245.5 676.283 260.579 676.283 273.496V270.731" stroke="#E8B077" stroke-width="5" stroke-linejoin="round"/>
<path d="M673.871 273.496C745.291 273.496 778.464 317.424 778.464 317.424H569.278C569.278 317.424 602.45 273.496 673.871 273.496Z" stroke="#E8B077" stroke-width="5" stroke-linejoin="round"/>
<path d="M590.689 290.232L574.204 520.075H778.464L761.124 292.092L735.993 278.974L730.012 343.458L624.615 344.363L616.925 276.662L590.689 290.232Z" fill="#83CDD1"/>
<path d="M586.316 380.199C631.652 380.752 676.987 381.305 722.322 381.808C735.239 381.959 748.106 382.109 761.023 382.26C764.24 382.26 764.24 377.284 761.023 377.234C715.688 376.681 670.353 376.128 625.017 375.626C612.1 375.475 599.233 375.324 586.316 375.173C583.1 375.173 583.1 380.149 586.316 380.199Z" fill="#53A7AB"/>
<path d="M603.908 350.846L621.549 349.188C622.906 349.037 624.062 348.132 624.062 346.675C624.062 345.418 622.906 344.011 621.549 344.162L603.908 345.82C602.551 345.971 601.395 346.876 601.395 348.333C601.395 349.59 602.551 350.997 603.908 350.846Z" fill="#53A7AB"/>
<path d="M734.988 346.172C742.175 347.529 749.212 349.389 756.148 351.701C757.455 352.153 758.912 351.198 759.214 349.942C759.616 348.585 758.761 347.278 757.455 346.876C750.519 344.564 743.482 342.704 736.295 341.347C734.938 341.096 733.581 341.699 733.179 343.106C732.827 344.312 733.581 345.921 734.938 346.172H734.988Z" fill="#53A7AB"/>
<path d="M730.163 379.646C730.666 395.83 731.168 412.064 731.671 428.248C731.771 431.465 736.797 431.465 736.697 428.248C736.194 412.064 735.692 395.83 735.189 379.646C735.089 376.429 730.063 376.429 730.163 379.646Z" fill="#53A7AB"/>
<path d="M705.686 383.869C706.189 417.192 706.691 450.565 707.194 483.888C707.194 487.104 712.27 487.104 712.22 483.888C711.717 450.565 711.215 417.192 710.712 383.869C710.712 380.652 705.636 380.652 705.686 383.869Z" fill="#53A7AB"/>
<path d="M669.8 382.461C669.297 398.896 668.795 415.331 668.292 431.767C668.191 434.983 673.218 434.983 673.318 431.767C673.821 415.331 674.323 398.896 674.826 382.461C674.926 379.244 669.9 379.244 669.8 382.461Z" fill="#53A7AB"/>
<path d="M629.943 382.461C627.631 416.487 626.676 450.564 627.027 484.641C627.027 487.858 632.104 487.858 632.054 484.641C631.702 450.564 632.657 416.487 634.969 382.461C635.17 379.244 630.144 379.244 629.943 382.461Z" fill="#53A7AB"/>
<path d="M609.838 380.35C607.325 401.711 604.762 423.122 602.249 444.483C601.847 447.7 606.923 447.65 607.275 444.483C609.788 423.122 612.351 401.711 614.865 380.35C615.267 377.134 610.241 377.184 609.838 380.35Z" fill="#53A7AB"/>
<path d="M258.108 604.591C258.108 608.428 262.594 788.362 266.136 827.737C268.675 856.014 256.042 1189.49 256.042 1189.49L160.526 1157.44L147.066 844.385L117.254 591.309" fill="#ED9370"/>
<path d="M208.756 329.908L148.305 429.438L171.328 560.374C171.328 560.374 122.272 603.351 117.431 604.59C112.531 605.889 44.6428 487.291 47.0632 434.751C49.4836 382.152 142.638 254.286 142.638 254.286" fill="#FFD5C2"/>
<path d="M208.756 355.469L164.599 413.676L70.0276 325.834C70.0276 325.834 125.991 249.327 159.168 236.989C192.345 224.651 224.105 225.005 224.105 225.005" fill="#E3A32A"/>
<path d="M70.0276 738.655L230.421 755.243C239.217 660.612 240.752 487.231 240.752 487.231L155.39 483.63C126.168 528.791 101.433 591.307 92.6964 630.624C84.904 665.63 70.0276 738.655 70.0276 738.655Z" fill="#A7976D"/>
<path d="M209.819 774.842L396.542 744.203L329.893 489.71L315.607 466.038L198.662 508.542C182.959 555.356 200.787 620.41 200.787 620.41C200.787 620.41 211.767 736.942 209.76 774.783L209.819 774.842Z" fill="#A7976D"/>
<path d="M294.414 541.601H218.497L224.046 600.694L244.471 610.021C255.865 615.216 269.147 614.389 279.833 607.837L299.55 595.676L294.473 541.66L294.414 541.601Z" stroke="#84734E" stroke-miterlimit="10"/>
<path d="M127.113 535.107L162.415 541.601L151.848 607.01L124.043 609.607C115.601 610.374 107.16 608.781 99.6033 604.943" stroke="#84734E" stroke-miterlimit="10"/>
<path d="M198.72 508.601C183.017 555.415 200.845 620.469 200.845 620.469L208.461 751.583" stroke="black" stroke-miterlimit="10"/>
<path d="M365.785 744.735C365.903 744.38 314.78 563.089 314.898 552.345C315.075 541.601 314.898 487.762 314.898 487.762" stroke="#84734E" stroke-miterlimit="10"/>
<path d="M328.712 292.067C356.162 333.036 356.93 496.087 356.93 496.087L93.5227 483.572C93.5227 483.572 122.036 284.747 142.638 252.633C176.996 199.149 310.943 239.646 310.943 239.646" fill="#E3A32A"/>
<path d="M163.595 233.742C180.124 311.43 202.321 388.351 233.196 461.611C241.696 481.742 250.846 501.636 261 520.999C264.542 527.729 274.696 521.766 271.213 515.036C234.73 445.141 209.464 369.519 189.806 293.366C184.434 272.586 179.475 251.629 175.048 230.614C173.454 223.175 162.06 226.304 163.654 233.742H163.595Z" fill="#706242"/>
<path d="M316.019 509.783C315.37 509.724 314.72 509.605 314.012 509.487C302.973 507.893 292.229 504.824 282.075 500.278C274.046 496.677 261.944 484.28 253.68 483.572C248.957 483.158 247.009 489.416 246.773 494.139C245.474 520.645 248.308 544.73 255.687 570.233C263.125 595.912 277.116 620.175 298.132 636.645C312.477 647.862 329.597 655.241 347.366 659.255C357.756 661.616 368.618 662.856 378.949 660.377C401.972 654.887 417.615 631.332 419.446 607.719C422.456 568.698 395.006 539.712 374.698 509.192C355.158 511.081 335.441 512.203 316.019 509.664V509.783Z" fill="#706242"/>
<path d="M311.356 336.521C343.647 401.28 365.194 471.589 374.521 543.374C377.178 563.799 378.831 584.343 379.539 604.945C379.834 612.502 391.641 612.561 391.346 604.945C388.748 530.977 373.813 457.539 347.13 388.47C339.515 368.753 330.955 349.449 321.568 330.558C318.203 323.769 307.991 329.732 311.356 336.521Z" fill="#706242"/>
<path d="M385.265 563.326C384.262 575.309 369.976 578.497 360.176 577.848C349.491 577.139 339.219 572.889 329.774 568.166C310.883 558.721 293.646 545.615 279.655 529.795C271.921 521.058 265.369 511.376 260.587 500.75C259.052 497.267 253.916 500.278 255.51 503.702C265.132 525.19 282.016 542.9 300.611 556.95C310.175 564.152 320.447 570.41 331.309 575.427C341.817 580.268 353.269 584.341 365.017 583.81C377.178 583.279 390.047 576.667 391.169 563.326C391.464 559.547 385.561 559.547 385.265 563.326Z" fill="#443A27"/>
<path d="M322.513 239.706C353.624 248.738 446.188 401.339 458.762 409.899C471.336 418.459 562.425 477.02 562.425 477.02C562.425 477.02 530.842 540.481 529.366 537.529C527.89 534.636 401.618 495.556 378.831 475.131C347.957 447.444 289.1 330.263 289.1 330.263" fill="#FFD5C2"/>
<path d="M266.077 333.508L303.563 418.575L419.682 342.422C419.682 342.422 353.269 242.774 322.454 239.704C291.639 236.634 258.049 232.561 258.049 232.561" fill="#E3A32A"/>
<path d="M270.977 344.549L303.563 418.577L328.062 402.52" stroke="#A36B01" stroke-miterlimit="10"/>
<path d="M113.712 363.381L130.773 285.338" stroke="#A36B01" stroke-miterlimit="10"/>
<path d="M489.755 506.182C497.665 513.916 505.517 521.59 513.427 529.323C517.501 533.278 521.574 537.293 526.237 540.599C539.284 549.867 555.754 552.937 569.686 560.788C574.35 563.386 578.659 566.514 583.323 569.171C588.931 572.359 594.952 574.779 600.915 577.199C602.509 577.849 604.162 578.498 605.815 578.085C607.231 577.731 608.412 576.668 609.888 576.491C611.718 576.196 613.548 577.317 615.378 577.258C617.916 577.14 620.042 574.307 619.333 571.827C620.396 572.831 622.285 572.123 622.993 570.824C623.702 569.525 623.525 567.99 623.348 566.514C622.698 561.083 622.049 555.593 621.34 550.162C620.809 545.912 620.219 541.602 618.566 537.647C616.559 532.806 613.076 528.674 609.475 524.837C605.992 521.118 602.332 517.576 598.494 514.211C595.956 511.967 593.122 509.252 593.24 505.887C596.31 505.887 599.144 507.658 602.095 508.543C606.818 510.019 612.249 509.193 616.323 506.359C616.618 506.123 616.972 505.887 617.09 505.533C617.503 504.529 616.263 503.703 615.319 503.231C607.999 500.043 601.092 496.028 594.598 491.365C588.872 487.173 583.736 480.326 577.479 477.315C563.251 470.467 547.49 467.574 532.259 464.15" fill="#FFD5C2"/>
<path d="M593 506C593 506 587.396 497.975 583.972 489.534" stroke="black" stroke-width="0.75" stroke-miterlimit="10"/>
<path d="M609.179 576.018C606.051 571.945 602.686 568.049 599.262 564.271C595.661 560.375 591.942 556.656 587.868 553.291C580.548 547.21 568.21 540.894 568.21 540.894" stroke="black" stroke-width="0.75" stroke-miterlimit="10"/>
<path d="M618.448 571.708C618.448 571.708 613.489 563.561 611.246 559.37C604.221 546.382 592.473 536.937 579.781 529.381" stroke="black" stroke-width="0.75" stroke-miterlimit="10"/>
<path d="M623.407 566.514C618.094 546.088 606.346 526.489 587.868 515.509" stroke="black" stroke-width="0.75" stroke-miterlimit="10"/>
<path d="M199.665 210.601C206.69 201.924 211.471 191.357 213.301 180.376C216.076 163.847 215.132 146.609 221.035 130.729C231.484 102.511 258.108 80.787 288.864 81.0231C315.429 81.2002 343.175 98.1428 352.502 123.409C356.044 133.091 358.288 143.303 359.055 153.634C359.409 158.121 359.468 162.666 360.413 167.094C361.711 173.174 364.604 178.96 368.736 183.564C371.275 186.398 370.744 188.228 367.143 188.877C364.663 189.349 361.121 189.113 361.121 189.113C361.121 189.113 360.236 198.382 359.881 200.802C357.933 214.143 355.041 232.798 335.619 231.204C324.048 230.26 312.064 223.648 300.14 229.492C292.406 233.27 283.728 246.848 283.728 246.848" fill="#FFD5C2"/>
<path d="M348.724 94.5413C348.724 94.5413 348.429 94.4232 348.252 94.3051C346.068 93.1835 344.297 91.3534 342.526 89.5824C339.456 86.4537 336.327 83.3249 333.198 80.2552C330.719 77.7758 327.885 76.8903 324.757 75.4735C315.961 71.5182 308.227 71.8134 299.018 72.817C289.1 73.9386 279.537 71.046 269.56 73.2892C260.587 75.2964 252.087 80.019 244.471 85.8043C229.359 97.1978 216.844 113.019 206.926 129.784C202.676 137.045 200.019 145.251 196.005 152.63C189.806 164.083 180.538 173.174 172.923 183.564C169.676 187.991 153.206 215.028 161.411 219.456C162.651 220.105 164.127 219.869 165.485 219.574C168.259 218.866 178.177 214.733 180.243 215.324C180.656 215.442 180.243 225.241 180.479 226.245C182.132 234.923 198.012 233.329 203.207 228.429C198.012 233.329 201.79 243.542 208.166 245.49C214.541 247.438 221.448 243.837 227.174 239.763C226.643 246.08 230.48 252.338 235.97 254.05C241.461 255.762 247.954 252.692 250.906 247.143C251.85 254.286 256.691 260.425 262.949 262.373C269.206 264.321 276.526 262.019 281.131 256.647C284.201 263.023 289.632 270.343 295.948 267.745C300.081 266.033 301.97 260.838 303.091 256.175C305.453 246.316 306.515 236.103 306.279 226.009C305.807 208.299 301.379 190.234 306.279 173.115C310.471 158.592 321.274 144.779 318.263 130.197C320.978 132.736 325.111 133.739 328.358 131.732C331.9 129.548 332.49 124.943 330.542 121.638C334.792 122.818 342.821 124.648 346.186 119.453C347.012 118.214 346.894 116.443 346.245 115.144C345.595 113.845 344.592 112.842 343.588 111.838C346.363 112.428 348.842 114.081 350.554 116.502C352.443 115.38 354.568 114.849 356.458 113.786C358.406 112.783 360.236 111.012 360.59 108.709C360.708 107.765 360.59 106.82 360.413 105.935C359.527 101.684 356.753 98.0242 353.093 96.3122C351.617 95.6038 350.023 95.2497 348.547 94.6003L348.724 94.5413Z" fill="#513306"/>
<path d="M339.043 163.848C339.574 167.095 341.758 169.397 343.943 169.043C346.127 168.688 347.426 165.737 346.835 162.49C346.304 159.243 344.12 156.941 341.935 157.295C339.751 157.649 338.453 160.601 339.043 163.848Z" fill="black"/>
<path d="M260.705 80.6101C252.382 80.0198 243.35 79.0753 237.446 73.231C234.318 70.1022 232.428 65.9699 231.307 61.6604C229.713 55.4619 229.772 48.614 232.665 42.8878C237.033 34.387 247.718 29.9005 256.986 32.2618C274.283 36.6303 286.916 69.807 270.977 81.9089" fill="#513306"/>
<path d="M337.987 200.202C338.998 200.046 339.995 199.645 341.013 199.456C341.648 199.338 342.97 198.78 343.542 199.311C344.541 200.238 345.101 202.229 346.568 202.586C348.385 203.028 350.297 200.887 352.123 201.404C352.662 201.557 354.116 202.929 354.403 202.067" stroke="black" stroke-width="4" stroke-linecap="round"/>
<path d="M331.336 143.503C332.864 143.597 334.277 144.363 335.898 144.452C338.061 144.571 339.934 143.956 341.708 142.703C343.379 141.524 344.952 140.201 346.453 138.828C346.793 138.517 347.675 137.556 347.708 137.739" stroke="black" stroke-width="4" stroke-linecap="round"/>
<path d="M403.876 95.4338C402.931 95.1977 403.153 93.4273 403.496 92.7987C404.657 90.6703 406.924 89.7874 409.191 89.3151C414.005 88.3121 418.402 89.7372 421.652 93.1114C426.48 98.1254 422.327 105.322 417.945 109.078C416.559 110.266 414.251 111.15 412.518 111.535C411.515 111.758 408.435 112.223 407.717 112.942C406.696 113.963 406.605 116.417 406.31 117.743C405.898 119.596 405.048 121.326 404.68 123.169" stroke="#513306" stroke-width="4" stroke-linecap="round"/>
<path d="M401.464 137.64C398.349 134.525 403.226 134.058 403.072 136.836C402.963 138.791 400.766 138.475 400.102 137.015C399.477 135.641 401.914 136.175 402.268 137.238" stroke="#513306" stroke-width="4" stroke-linecap="round"/>
<path d="M158.602 100.563C153.071 96.1965 152.92 87.5382 156.596 82.0471C160.176 76.6995 166.94 75.6344 172.958 75.053C179.558 74.4155 188.712 75.6866 191.916 82.5257C194.769 88.614 194.442 97.3308 193.444 103.803C192.801 107.971 190.437 112.678 186.118 113.981C180.062 115.807 172.521 114.171 167.768 110.042C164.492 107.195 161.578 101.985 162.136 97.471C162.628 93.4907 166.755 91.8373 170.198 91.1027C177.264 89.5945 184.781 90.5221 191.18 93.9003C194.197 95.4931 198.648 98.1636 198.064 102.22C197.698 104.756 195.319 107.305 193.241 108.625C186.759 112.742 177.693 107.286 178.775 99.7165C180.139 90.1652 193.792 82.8432 202.389 88.0289C204.285 89.1725 205.246 91.1763 205.095 93.3849C204.887 96.4002 201.983 97.6114 199.278 97.6919C195.796 97.7955 191.936 95.4745 188.935 93.9739C185.595 92.3041 182.486 90.2326 180.56 86.943C176.151 79.4117 184.067 75.5642 190.775 76.3046C194.164 76.6787 199.098 77.7908 200.751 81.2005C202.059 83.8981 202.333 86.6582 200.567 89.1885C196.179 95.4756 188.409 96.98 181.664 93.4034C177.877 91.3951 172.851 88.6985 170.713 84.7711C168.783 81.2263 167.891 76.2826 169.167 72.3658C171.061 66.5533 181.799 65.4829 186.615 67.7644C187.232 68.0565 189.645 70.1334 188.419 70.7461" stroke="#513306" stroke-width="4" stroke-linecap="round"/>
</g>
<defs>
<clipPath id="clip0_291_1934">
<rect width="800" height="600" fill="white"/>
</clipPath>
</defs>
</svg>
