<svg width="204" height="32" viewBox="0 0 204 32" fill="none" xmlns="http://www.w3.org/2000/svg">
<path d="M197.573 31.5453V25.7157H203.403V31.5453H197.573Z" fill="#180000"/>
<path d="M185.283 31.9995C183.366 31.9995 181.763 31.6588 180.476 30.9774C179.189 30.296 178.217 29.2487 177.561 27.8355C176.905 26.397 176.539 24.5421 176.463 22.2708L182.255 21.4002C182.28 22.7125 182.394 23.7724 182.596 24.58C182.823 25.3875 183.126 25.968 183.504 26.3213C183.908 26.6746 184.388 26.8512 184.943 26.8512C185.649 26.8512 186.104 26.6115 186.306 26.132C186.533 25.6525 186.646 25.1478 186.646 24.6178C186.646 23.356 186.343 22.2961 185.738 21.438C185.132 20.5548 184.312 19.6715 183.277 18.7882L180.627 16.4791C179.467 15.4949 178.482 14.3845 177.675 13.1479C176.892 11.8861 176.501 10.334 176.501 8.49176C176.501 5.89241 177.271 3.91135 178.81 2.54859C180.35 1.16058 182.444 0.466583 185.094 0.466583C186.735 0.466583 188.047 0.744184 189.031 1.29939C190.041 1.85459 190.798 2.58644 191.302 3.49495C191.832 4.37823 192.186 5.32459 192.362 6.33405C192.564 7.31827 192.678 8.26463 192.703 9.17314L186.873 9.89238C186.848 8.98387 186.785 8.20154 186.684 7.5454C186.608 6.86401 186.432 6.34667 186.154 5.99336C185.877 5.61481 185.448 5.42554 184.867 5.42554C184.236 5.42554 183.769 5.69052 183.466 6.22048C183.189 6.75045 183.05 7.28041 183.05 7.81038C183.05 8.94602 183.315 9.87976 183.845 10.6116C184.4 11.3182 185.119 12.0627 186.003 12.845L188.539 15.0785C189.877 16.2141 191 17.5012 191.908 18.9396C192.842 20.3781 193.309 22.1573 193.309 24.2771C193.309 25.7156 192.981 27.0279 192.324 28.214C191.668 29.3749 190.735 30.296 189.523 30.9774C188.337 31.6588 186.924 31.9995 185.283 31.9995Z" fill="#180000"/>
<path d="M159.143 31.5457V0.883484H165.919V26.9653H172.959V31.5457H159.143Z" fill="#180000"/>
<path d="M135.303 31.5456L143 0.999969H146L154.533 31.5456L146.41 31.5455V26.8136H143.255V31.5456H135.303Z" fill="#180000"/>
<path d="M115.451 31.5457V0.883484H125.747C127.59 0.883484 129.104 1.23679 130.29 1.94341C131.476 2.6248 132.359 3.63425 132.94 4.97178C133.52 6.28407 133.81 7.88659 133.81 9.77932C133.81 12.1515 133.419 13.9686 132.637 15.2304C131.855 16.467 130.795 17.325 129.457 17.8045C128.12 18.284 126.618 18.5237 124.952 18.5237H122.227V31.5457H115.451ZM122.227 13.7919H124.498C125.331 13.7919 125.962 13.6405 126.391 13.3376C126.82 13.0348 127.098 12.5806 127.224 11.9749C127.375 11.3692 127.451 10.5995 127.451 9.66575C127.451 8.88343 127.388 8.20204 127.262 7.6216C127.161 7.01593 126.896 6.53644 126.467 6.18313C126.038 5.82982 125.369 5.65317 124.46 5.65317H122.227V13.7919Z" fill="#180000"/>
<path d="M99.8424 31.5457V5.91815H95.2241V0.883484H111.237V5.91815H106.656V31.5457H99.8424Z" fill="#180000"/>
<path d="M84.2175 31.5457V0.883484H90.9935V31.5457H84.2175Z" fill="#180000"/>
<path d="M66.2512 31.5457V0.883484H79.5003V5.46389H73.0272V13.1862H78.6675V17.9181H73.0272V31.5457H66.2512Z" fill="#180000"/>
<path d="M50.6439 31.5457V5.91815H46.0256V0.883484H62.0381V5.91815H57.4577V31.5457H50.6439Z" fill="#180000"/>
<path d="M32.9691 32C30.6222 32 28.7799 31.6214 27.4424 30.8643C26.1301 30.082 25.2089 28.959 24.679 27.4953C24.149 26.0063 23.884 24.1893 23.884 22.0442V0.883484H30.5843V23.0663C30.5843 23.6972 30.6348 24.3281 30.7357 24.959C30.8367 25.5899 31.0512 26.1073 31.3792 26.5111C31.7326 26.9148 32.2625 27.1167 32.9691 27.1167C33.701 27.1167 34.231 26.9148 34.559 26.5111C34.8871 26.1073 35.089 25.5899 35.1647 24.959C35.2656 24.3281 35.3161 23.6972 35.3161 23.0663V0.883484H42.0542V22.0442C42.0542 24.1893 41.7766 26.0063 41.2214 27.4953C40.6915 28.959 39.7703 30.082 38.4581 30.8643C37.1458 31.6214 35.3161 32 32.9691 32Z" fill="#180000"/>
<path fill-rule="evenodd" clip-rule="evenodd" d="M3.74761 30.7881C5.08514 31.5957 6.90216 31.9995 9.19867 31.9995C11.5204 31.9995 13.3501 31.5957 14.6876 30.7881C16.0504 29.9806 17.022 28.8197 17.6024 27.3055C18.1828 25.7913 18.473 23.9869 18.473 21.8923V10.4981C18.473 8.37819 18.1828 6.57379 17.6024 5.08484C17.022 3.5959 16.0504 2.46026 14.6876 1.67793C13.3501 0.870366 11.5204 0.466583 9.19867 0.466583C6.90216 0.466583 5.08514 0.870366 3.74761 1.67793C2.41008 2.46026 1.45109 3.5959 0.870656 5.08484C0.290219 6.57379 0 8.37819 0 10.4981V21.8923C0 23.9869 0.290219 25.7913 0.870656 27.3055C1.45109 28.8197 2.41008 29.9806 3.74761 30.7881ZM12.7041 27.3633C13.5336 27.1255 14.0897 26.7726 14.3724 26.3047C14.655 25.8367 14.7751 25.3049 14.7325 24.7092C14.6899 24.1134 14.5844 23.5219 14.416 22.9346L10.1327 7.99705C9.95701 7.38422 9.73302 6.82669 9.46075 6.32445C9.18116 5.79668 8.79754 5.40927 8.30988 5.16223C7.51512 4.92478 7.08652 4.92837 6.33406 5.14847C5.56376 5.36936 5.03729 5.71376 4.75464 6.18168C4.472 6.6496 4.35196 7.18143 4.39454 7.77716C4.42979 8.34737 4.53528 8.93888 4.711 9.55171L8.99428 24.4893C9.16269 25.0766 9.37187 25.6384 9.62183 26.1746C9.90142 26.7024 10.2702 27.0941 10.7283 27.3496C11.4928 27.5832 11.9083 27.5799 12.7041 27.3633Z" fill="#180000"/>
</svg>
